<svg width="72" height="72" viewBox="0 0 72 72" fill="none" xmlns="http://www.w3.org/2000/svg">
<g clip-path="url(#clip0_157_7983)">
<g opacity="0.71">
<path d="M33.8361 14.6867L23 9L29.0415 1.5394L39.8776 7.22609L33.8361 14.6867Z" fill="#302E2A"/>
</g>
<g opacity="0.74">
<path d="M36.0662 20.2375L36 8L45.4236 9.83177L45.4898 22.0692L36.0662 20.2375Z" fill="#302E2A"/>
</g>
<g opacity="0.9">
<path d="M16.2993 18.6095L6 12L12.6687 5.09434L22.968 11.7038L16.2993 18.6095Z" fill="#302E2A"/>
</g>
<g opacity="0.96">
<path d="M31.0629 13.7682L20 19L17.6775 9.68516L28.7405 4.45339L31.0629 13.7682Z" fill="#302E2A"/>
</g>
<g opacity="0.82">
<path d="M17.329 21.9907L28 16L30.9666 25.1301L20.2955 31.1209L17.329 21.9907Z" fill="#302E2A"/>
</g>
<g opacity="0.88">
<path d="M56.8736 14.3853L46 20L43.3539 10.7719L54.2275 5.15721L56.8736 14.3853Z" fill="#302E2A"/>
</g>
<g opacity="0.95">
<path d="M38.3166 19.6412L50 16L51.0035 25.5474L39.3201 29.1886L38.3166 19.6412Z" fill="#302E2A"/>
</g>
<g opacity="0.73">
<path d="M58.7688 4.19665L62 16L52.4234 16.6697L49.1922 4.86631L58.7688 4.19665Z" fill="#302E2A"/>
</g>
<g opacity="0.96">
<path d="M5.42405 44.9699L0 34L9.27289 31.5153L14.6969 42.4853L5.42405 44.9699Z" fill="#302E2A"/>
</g>
<g opacity="0.87">
<path d="M23.0608 17.8606L33 25L25.979 31.5472L16.0398 24.4077L23.0608 17.8606Z" fill="#302E2A"/>
</g>
<g opacity="0.77">
<path d="M37.1251 37.7352L43 27L50.354 33.1708L44.4791 43.906L37.1251 37.7352Z" fill="#302E2A"/>
</g>
<g opacity="0.92">
<path d="M45.8457 32.5743L58 34L55.0334 43.1301L42.8791 41.7045L45.8457 32.5743Z" fill="#302E2A"/>
</g>
<g opacity="0.71">
<path d="M10.9402 59.063L13 47L21.9624 50.4403L19.9025 62.5034L10.9402 59.063Z" fill="#302E2A"/>
</g>
<g opacity="0.85">
<path d="M38.7569 31.4515L30 40L24.7715 31.9488L33.5284 23.4003L38.7569 31.4515Z" fill="#302E2A"/>
</g>
<g opacity="0.84">
<path d="M36.5314 52.7527L46 45L50.5069 53.4763L41.0383 61.229L36.5314 52.7527Z" fill="#302E2A"/>
</g>
<g opacity="0.84">
<path d="M55.8154 32.583L48 42L41.9585 34.5394L49.7739 25.1224L55.8154 32.583Z" fill="#302E2A"/>
</g>
<g opacity="0.91">
<path d="M29.6181 54.1555L18 58L16.8301 48.4716L28.4481 44.627L29.6181 54.1555Z" fill="#302E2A"/>
</g>
<path d="M26.6091 61.9563L24 50L33.5985 49.8325L36.2076 61.7887L26.6091 61.9563Z" fill="#302E2A"/>
<g opacity="0.98">
<path d="M35.0785 65.5923L39 54L47.3138 58.8L43.3923 70.3923L35.0785 65.5923Z" fill="#302E2A"/>
</g>
<g opacity="0.98">
<path d="M39.6057 49.0952L48 58L39.8587 63.0872L31.4644 54.1825L39.6057 49.0952Z" fill="#302E2A"/>
</g>
<g opacity="0.79">
<path d="M41.1851 61.8675L29 63L30.0035 53.4526L42.1886 52.3201L41.1851 61.8675Z" fill="#302E2A"/>
</g>
<g opacity="0.92">
<path d="M35.4515 56.2431L44 65L35.9488 70.2285L27.4003 61.4716L35.4515 56.2431Z" fill="#302E2A"/>
</g>
</g>
<defs>
<clipPath id="clip0_157_7983">
<rect width="72" height="72" fill="white"/>
</clipPath>
</defs>
</svg>
