<svg width="72" height="72" viewBox="0 0 72 72" fill="none" xmlns="http://www.w3.org/2000/svg">
<g clip-path="url(#clip0_157_7692)">
<g opacity="0.95">
<path d="M25.6159 9.53147L23 4L27.6574 2.83877L30.2733 8.37024L25.6159 9.53147Z" fill="#302E2A"/>
</g>
<g opacity="0.89">
<path d="M42.0912 7.39411L37 4L40.3941 0.605887L45.4853 4L42.0912 7.39411Z" fill="#302E2A"/>
</g>
<g opacity="0.98">
<path d="M38.3355 7.00463L33 10L31.5167 5.43493L36.8522 2.43956L38.3355 7.00463Z" fill="#302E2A"/>
</g>
<g opacity="0.89">
<path d="M36.2516 15.4669L39 10L42.7825 12.9552L40.0341 18.422L36.2516 15.4669Z" fill="#302E2A"/>
</g>
<g opacity="0.88">
<path d="M41.1274 10.7184L47 9L47.4183 13.7817L41.5458 15.5001L41.1274 10.7184Z" fill="#302E2A"/>
</g>
<g opacity="0.79">
<path d="M22.4244 18.2266L18 14L21.9319 11.2468L26.3564 15.4735L22.4244 18.2266Z" fill="#302E2A"/>
</g>
<path d="M30.0951 23.02L29 17L33.7993 17.0838L34.8944 23.1038L30.0951 23.02Z" fill="#302E2A"/>
<path d="M29.6467 6.89138L30 13L25.2467 12.332L24.8934 6.22335L29.6467 6.89138Z" fill="#302E2A"/>
<g opacity="0.76">
<path d="M30.9113 13.3933L37 14L35.5966 18.5903L29.5079 17.9836L30.9113 13.3933Z" fill="#302E2A"/>
</g>
<g opacity="0.8">
<path d="M48.3047 8.85037L45 14L41.5472 10.6656L44.8519 5.51601L48.3047 8.85037Z" fill="#302E2A"/>
</g>
<g opacity="0.78">
<path d="M50.8195 20.1162L51 14L55.677 15.0798L55.4965 21.1959L50.8195 20.1162Z" fill="#302E2A"/>
</g>
<g opacity="0.79">
<path d="M55.7128 5.92284L55 12L50.4349 10.5167L51.1478 4.43956L55.7128 5.92284Z" fill="#302E2A"/>
</g>
<path d="M57.8985 14.4598L64 14L63.415 18.7642L57.3135 19.2241L57.8985 14.4598Z" fill="#302E2A"/>
<g opacity="0.7">
<path d="M10.3144 20.7386L16 23L13.3857 27.0256L7.70014 24.7642L10.3144 20.7386Z" fill="#302E2A"/>
</g>
<g opacity="0.93">
<path d="M13.2995 24.2237L19 22L19.8335 26.7271L14.133 28.9507L13.2995 24.2237Z" fill="#302E2A"/>
</g>
<g opacity="0.79">
<path d="M31.1162 18.1805L25 18L26.0798 13.323L32.1959 13.5035L31.1162 18.1805Z" fill="#302E2A"/>
</g>
<g opacity="0.84">
<path d="M32.4212 28.6194L30 23L34.6951 22.002L37.1164 27.6214L32.4212 28.6194Z" fill="#302E2A"/>
</g>
<g opacity="0.92">
<path d="M45.8908 19.6547L40 18L42.1792 13.7232L48.07 15.3779L45.8908 19.6547Z" fill="#302E2A"/>
</g>
<g opacity="0.8">
<path d="M37.6968 26.35L42 22L44.6841 25.9794L40.3809 30.3294L37.6968 26.35Z" fill="#302E2A"/>
</g>
<g opacity="0.87">
<path d="M53.8188 13.9362L53 20L48.4615 18.4373L49.2803 12.3735L53.8188 13.9362Z" fill="#302E2A"/>
</g>
<g opacity="0.86">
<path d="M59.5003 13.9017L59 20L54.3859 18.6769L54.8863 12.5786L59.5003 13.9017Z" fill="#302E2A"/>
</g>
<g opacity="0.87">
<path d="M62.1927 17.5632L65 23L60.3859 24.3231L57.5786 18.8863L62.1927 17.5632Z" fill="#302E2A"/>
</g>
<g opacity="0.89">
<path d="M9.14876 23.5025L5 28L2.17863 24.1167L6.32739 19.6192L9.14876 23.5025Z" fill="#302E2A"/>
</g>
<g opacity="0.95">
<path d="M9.55167 21.0812L8 27L3.68579 24.8958L5.23746 18.977L9.55167 21.0812Z" fill="#302E2A"/>
</g>
<g opacity="0.76">
<path d="M20.0696 19.4307L16 24L13.1113 20.1665L17.1809 15.5973L20.0696 19.4307Z" fill="#302E2A"/>
</g>
<g opacity="0.78">
<path d="M20.1619 18.2758L18 24L13.9294 21.4564L16.0912 15.7322L20.1619 18.2758Z" fill="#302E2A"/>
</g>
<g opacity="0.79">
<path d="M18.055 25.5519L24 27L21.9714 31.3503L16.0264 29.9021L18.055 25.5519Z" fill="#302E2A"/>
</g>
<g opacity="0.97">
<path d="M29.3453 34.8908L31 29L35.2768 31.1792L33.6221 37.07L29.3453 34.8908Z" fill="#302E2A"/>
</g>
<g opacity="0.73">
<path d="M38.1238 30.7384L36 25L40.7409 24.2491L42.8647 29.9875L38.1238 30.7384Z" fill="#302E2A"/>
</g>
<g opacity="0.91">
<path d="M49.1619 20.2758L47 26L42.9294 23.4564L45.0912 17.7322L49.1619 20.2758Z" fill="#302E2A"/>
</g>
<g opacity="0.82">
<path d="M48.8202 23.7723L52 29L47.4895 30.6417L44.3097 25.414L48.8202 23.7723Z" fill="#302E2A"/>
</g>
<g opacity="0.8">
<path d="M58.9307 21.3767L54 25L51.9714 20.6497L56.9021 17.0264L58.9307 21.3767Z" fill="#302E2A"/>
</g>
<g opacity="0.95">
<path d="M58.9618 28.9899L65 28L64.8325 32.7971L58.7943 33.7869L58.9618 28.9899Z" fill="#302E2A"/>
</g>
<path d="M65.3767 20.0693L69 25L64.6497 27.0286L61.0264 22.0979L65.3767 20.0693Z" fill="#302E2A"/>
<g opacity="0.8">
<path d="M9.03116 33.4824L4 30L7.45283 26.6656L12.484 30.1481L9.03116 33.4824Z" fill="#302E2A"/>
</g>
<g opacity="0.85">
<path d="M16.2277 28.8202L11 32L9.3583 27.4895L14.586 24.3097L16.2277 28.8202Z" fill="#302E2A"/>
</g>
<g opacity="0.94">
<path d="M10.1583 35.8206L16 34L16.5017 38.7737L10.66 40.5943L10.1583 35.8206Z" fill="#302E2A"/>
</g>
<g opacity="0.93">
<path d="M24.4524 29.8028L20 34L17.4564 29.9294L21.9088 25.7322L24.4524 29.8028Z" fill="#302E2A"/>
</g>
<g opacity="0.86">
<path d="M32.4824 27.9688L29 33L25.6656 29.5472L29.1481 24.516L32.4824 27.9688Z" fill="#302E2A"/>
</g>
<path d="M39.8417 30.1794L34 32L33.4983 27.2263L39.34 25.4057L39.8417 30.1794Z" fill="#302E2A"/>
<g opacity="0.94">
<path d="M37.7534 26.8861L38 33L33.2591 32.2491L33.0125 26.1353L37.7534 26.8861Z" fill="#302E2A"/>
</g>
<g opacity="0.76">
<path d="M36.9688 28.5176L42 32L38.5472 35.3344L33.516 31.8519L36.9688 28.5176Z" fill="#302E2A"/>
</g>
<g opacity="0.82">
<path d="M53.6725 40.0818L53 34L57.7817 34.4183L58.4542 40.5001L53.6725 40.0818Z" fill="#302E2A"/>
</g>
<g opacity="0.8">
<path d="M56.1805 27.8838L56 34L51.323 32.9202L51.5035 26.8041L56.1805 27.8838Z" fill="#302E2A"/>
</g>
<g opacity="0.78">
<path d="M63.6067 27.9113L63 34L58.4097 32.5966L59.0164 26.5079L63.6067 27.9113Z" fill="#302E2A"/>
</g>
<g opacity="0.96">
<path d="M63.9088 26.6059L69 30L65.6059 33.3941L60.5147 30L63.9088 26.6059Z" fill="#302E2A"/>
</g>
<g opacity="0.77">
<path d="M10.6772 35.3392L13 41L8.28819 41.9159L5.96538 36.2551L10.6772 35.3392Z" fill="#302E2A"/>
</g>
<g opacity="0.78">
<path d="M19.7534 31.8861L20 38L15.2591 37.2491L15.0125 31.1353L19.7534 31.8861Z" fill="#302E2A"/>
</g>
<g opacity="0.83">
<path d="M21.5025 35.8512L26 40L22.1167 42.8214L17.6192 38.6726L21.5025 35.8512Z" fill="#302E2A"/>
</g>
<g opacity="0.74">
<path d="M30.6062 42.1061L31 36L35.6364 37.2423L35.2426 43.3485L30.6062 42.1061Z" fill="#302E2A"/>
</g>
<g opacity="0.86">
<path d="M35.3968 37.5415L41 40L38.2468 43.9319L32.6436 41.4735L35.3968 37.5415Z" fill="#302E2A"/>
</g>
<path d="M45.9263 42.1184L46 36L50.6951 36.998L50.6214 43.1164L45.9263 42.1184Z" fill="#302E2A"/>
<path d="M55.1188 41.525L51 37L55.1144 34.5278L59.2332 39.0528L55.1188 41.525Z" fill="#302E2A"/>
<g opacity="0.74">
<path d="M54.0693 40.6233L59 37L61.0286 41.3503L56.0979 44.9736L54.0693 40.6233Z" fill="#302E2A"/>
</g>
<path d="M58.5788 32.3806L61 38L56.3049 38.998L53.8836 33.3786L58.5788 32.3806Z" fill="#302E2A"/>
<g opacity="0.79">
<path d="M12.5697 38.0304L9 43L5.72641 39.4895L9.29613 34.5199L12.5697 38.0304Z" fill="#302E2A"/>
</g>
<g opacity="0.87">
<path d="M14.0392 49.7962L16 44L20.1569 46.4L18.1962 52.1962L14.0392 49.7962Z" fill="#302E2A"/>
</g>
<g opacity="0.73">
<path d="M17.6955 40.0219L19 46L14.2007 46.0838L12.8962 40.1056L17.6955 40.0219Z" fill="#302E2A"/>
</g>
<g opacity="0.78">
<path d="M24.2068 37.1987L28 42L23.7232 44.1792L19.93 39.3779L24.2068 37.1987Z" fill="#302E2A"/>
</g>
<g opacity="0.9">
<path d="M29.5402 39.8985L30 46L25.2358 45.415L24.7759 39.3135L29.5402 39.8985Z" fill="#302E2A"/>
</g>
<g opacity="0.85">
<path d="M39.712 52.485L37 47L41.6364 45.7577L44.3485 51.2426L39.712 52.485Z" fill="#302E2A"/>
</g>
<g opacity="0.75">
<path d="M36.9514 42.0755L43 43L41.3583 47.5105L35.3097 46.586L36.9514 42.0755Z" fill="#302E2A"/>
</g>
<g opacity="0.76">
<path d="M54.1798 47.2277L51 42L55.5105 40.3583L58.6903 45.586L54.1798 47.2277Z" fill="#302E2A"/>
</g>
<g opacity="0.76">
<path d="M48.2616 47.1238L54 45L54.7509 49.7409L49.0125 51.8647L48.2616 47.1238Z" fill="#302E2A"/>
</g>
<g opacity="0.96">
<path d="M64.6067 37.9113L64 44L59.4097 42.5966L60.0164 36.5079L64.6067 37.9113Z" fill="#302E2A"/>
</g>
<g opacity="0.86">
<path d="M13.6453 51.3603L8 49L10.6841 45.0206L16.3294 47.3809L13.6453 51.3603Z" fill="#302E2A"/>
</g>
<g opacity="0.92">
<path d="M19.1972 52.4524L15 48L19.0706 45.4564L23.2678 49.9088L19.1972 52.4524Z" fill="#302E2A"/>
</g>
<g opacity="0.78">
<path d="M14.0693 52.6233L19 49L21.0286 53.3503L16.0979 56.9736L14.0693 52.6233Z" fill="#302E2A"/>
</g>
<g opacity="0.75">
<path d="M24.9049 42.98L26 49L21.2007 48.9162L20.1056 42.8962L24.9049 42.98Z" fill="#302E2A"/>
</g>
<g opacity="0.9">
<path d="M39.7085 52.9077L35 49L38.7303 45.9793L43.4388 49.887L39.7085 52.9077Z" fill="#302E2A"/>
</g>
<g opacity="0.76">
<path d="M35.0693 56.6233L40 53L42.0286 57.3503L37.0979 60.9736L35.0693 56.6233Z" fill="#302E2A"/>
</g>
<g opacity="0.83">
<path d="M49.2144 45.7935L46 51L42.4895 47.7264L45.7039 42.5199L49.2144 45.7935Z" fill="#302E2A"/>
</g>
<g opacity="0.85">
<path d="M45.0304 44.4303L50 48L46.4895 51.2736L41.5199 47.7039L45.0304 44.4303Z" fill="#302E2A"/>
</g>
<g opacity="0.96">
<path d="M58.7128 57.1121L59 51L63.6574 52.1612L63.3702 58.2733L58.7128 57.1121Z" fill="#302E2A"/>
</g>
<g opacity="0.72">
<path d="M65.8433 44.5819L63 50L59.2697 46.9793L62.113 41.5612L65.8433 44.5819Z" fill="#302E2A"/>
</g>
<g opacity="0.78">
<path d="M20.7602 60.9919L22 55L26.4184 56.8755L25.1786 62.8674L20.7602 60.9919Z" fill="#302E2A"/>
</g>
<g opacity="0.98">
<path d="M22.224 55.1751L27 59L23.323 62.0854L18.547 58.2605L22.224 55.1751Z" fill="#302E2A"/>
</g>
<g opacity="0.79">
<path d="M26.5176 60.0312L30 55L33.3344 58.4528L29.8519 63.484L26.5176 60.0312Z" fill="#302E2A"/>
</g>
<g opacity="0.71">
<path d="M38.519 62.5763L36 57L40.677 55.9202L43.1959 61.4965L38.519 62.5763Z" fill="#302E2A"/>
</g>
<g opacity="0.97">
<path d="M48.5517 50.0812L47 56L42.6858 53.8958L44.2375 47.977L48.5517 50.0812Z" fill="#302E2A"/>
</g>
<g opacity="0.74">
<path d="M48.2872 65.0772L49 59L53.5651 60.4833L52.8522 66.5604L48.2872 65.0772Z" fill="#302E2A"/>
</g>
<g opacity="0.93">
<path d="M49.1389 57.2427L55 59L52.7465 63.2381L46.8855 61.4809L49.1389 57.2427Z" fill="#302E2A"/>
</g>
<g opacity="0.95">
<path d="M20.3941 55.9088L17 61L13.6059 57.6059L17 52.5147L20.3941 55.9088Z" fill="#302E2A"/>
</g>
<g opacity="0.81">
<path d="M24.0392 68.5962L20 64L24.1569 61.6L28.1962 66.1962L24.0392 68.5962Z" fill="#302E2A"/>
</g>
<g opacity="0.87">
<path d="M24.481 54.4237L27 60L22.323 61.0798L19.8041 55.5035L24.481 54.4237Z" fill="#302E2A"/>
</g>
<g opacity="0.95">
<path d="M31.7184 67.8726L30 62L34.7817 61.5817L36.5001 67.4542L31.7184 67.8726Z" fill="#302E2A"/>
</g>
<g opacity="0.73">
<path d="M49.8433 54.5819L47 60L43.2697 56.9793L46.113 51.5612L49.8433 54.5819Z" fill="#302E2A"/>
</g>
<g opacity="0.92">
<path d="M43.8864 64.3603L49 61L50.7981 65.4505L45.6845 68.8107L43.8864 64.3603Z" fill="#302E2A"/>
</g>
<g opacity="0.86">
<path d="M58.741 58.158L55 63L51.8509 59.3774L55.5919 54.5354L58.741 58.158Z" fill="#302E2A"/>
</g>
<g opacity="0.73">
<path d="M39.4368 63.1927L34 66L32.6769 61.3859L38.1137 58.5786L39.4368 63.1927Z" fill="#302E2A"/>
</g>
<g opacity="0.72">
<path d="M39.9584 70.6659L36 66L40.1982 63.6729L44.1566 68.3389L39.9584 70.6659Z" fill="#302E2A"/>
</g>
<g opacity="0.85">
<path d="M56.4824 61.9688L53 67L49.6656 63.5472L53.1481 58.516L56.4824 61.9688Z" fill="#302E2A"/>
</g>
</g>
<defs>
<clipPath id="clip0_157_7692">
<rect width="72" height="72" fill="white"/>
</clipPath>
</defs>
</svg>
