<svg width="77" height="77" viewBox="0 0 77 77" fill="none" xmlns="http://www.w3.org/2000/svg">
    <g opacity="0.97">
        <path d="M28.8332 7.03278L29 5L30.538 5.44102L30.3712 7.4738L28.8332 7.03278Z" fill="#302E2A" />
    </g>
    <g opacity="0.79">
        <path d="M35.904 5.82832L35 4L36.5455 3.58589L37.4495 5.41421L35.904 5.82832Z" fill="#302E2A" />
    </g>
    <g opacity="0.89">
        <path d="M39.6435 5.52308L41 4L41.9629 5.27782L40.6064 6.8009L39.6435 5.52308Z" fill="#302E2A" />
    </g>
    <g opacity="0.94">
        <path d="M40.0463 3.41424L42 4L41.2488 5.41272L39.2952 4.82695L40.0463 3.41424Z" fill="#302E2A" />
    </g>
    <g opacity="0.94">
        <path d="M25.7978 10.0296L26 8L27.5301 8.46779L27.3279 10.4974L25.7978 10.0296Z" fill="#302E2A" />
    </g>
    <g opacity="0.92">
        <path d="M28.2186 6.36448L27 8L25.9294 6.81097L27.148 5.17545L28.2186 6.36448Z" fill="#302E2A" />
    </g>
    <g opacity="0.84">
        <path d="M32.3082 5.98381L32 8L30.4965 7.45277L30.8047 5.43657L32.3082 5.98381Z" fill="#302E2A" />
    </g>
    <g opacity="0.85">
        <path d="M32.9613 7.93985L35 8L34.6401 9.55899L32.6014 9.49884L32.9613 7.93985Z" fill="#302E2A" />
    </g>
    <g opacity="0.75">
        <path d="M37.0822 8.03795L37 6L38.5803 6.2503L38.6625 8.28825L37.0822 8.03795Z" fill="#302E2A" />
    </g>
    <g opacity="0.7">
        <path d="M37.6702 7.54653L39 6L39.9851 7.26082L38.6553 8.80734L37.6702 7.54653Z" fill="#302E2A" />
    </g>
    <path d="M44.9673 9.79566L44 8L45.5301 7.53221L46.4974 9.32787L44.9673 9.79566Z" fill="#302E2A" />
    <g opacity="0.87">
        <path d="M46.3255 4.07513L47 6L45.4156 6.22268L44.7411 4.29781L46.3255 4.07513Z" fill="#302E2A" />
    </g>
    <g opacity="0.9">
        <path d="M45.962 7.08221L48 7L47.7497 8.5803L45.7118 8.66251L45.962 7.08221Z" fill="#302E2A" />
    </g>
    <g opacity="0.82">
        <path d="M50.7637 5.37776L52 7L50.5619 7.70139L49.3257 6.07915L50.7637 5.37776Z" fill="#302E2A" />
    </g>
    <g opacity="0.73">
        <path d="M22.1789 12.6644L21 11L22.4617 10.3492L23.6406 12.0136L22.1789 12.6644Z" fill="#302E2A" />
    </g>
    <g opacity="0.74">
        <path d="M23.6271 7.49168L25 9L23.6285 9.82406L22.2556 8.31574L23.6271 7.49168Z" fill="#302E2A" />
    </g>
    <g opacity="0.73">
        <path d="M29.5172 9.02706L29 11L27.5619 10.2986L28.0792 8.32567L29.5172 9.02706Z" fill="#302E2A" />
    </g>
    <g opacity="0.97">
        <path d="M27.9818 10.2948L30 10L29.9163 11.5978L27.8981 11.8926L27.9818 10.2948Z" fill="#302E2A" />
    </g>
    <g opacity="0.74">
        <path d="M32.0152 11.4696L34 11L34.0558 12.599L32.071 13.0686L32.0152 11.4696Z" fill="#302E2A" />
    </g>
    <g opacity="0.7">
        <path d="M36.7868 8.11825L36 10L34.6735 9.10529L35.4603 7.22354L36.7868 8.11825Z" fill="#302E2A" />
    </g>
    <g opacity="0.85">
        <path d="M40.7758 7.97275L41 10L39.4061 9.86055L39.1819 7.8333L40.7758 7.97275Z" fill="#302E2A" />
    </g>
    <g opacity="0.73">
        <path d="M42.365 11.0067L42 9L43.5998 9.02792L43.9648 11.0346L42.365 11.0067Z" fill="#302E2A" />
    </g>
    <g opacity="0.77">
        <path d="M44.5867 11.9973L45 10L46.4728 10.6252L46.0595 12.6225L44.5867 11.9973Z" fill="#302E2A" />
    </g>
    <path d="M48.2282 9.98977L50 11L48.9503 12.2075L47.1785 11.1973L48.2282 9.98977Z" fill="#302E2A" />
    <g opacity="0.83">
        <path d="M49.4917 12.3729L51 11L51.8241 12.3715L50.3157 13.7444L49.4917 12.3729Z" fill="#302E2A" />
    </g>
    <g opacity="0.98">
        <path d="M52.1182 8.21323L54 9L53.1053 10.3265L51.2235 9.53969L52.1182 8.21323Z" fill="#302E2A" />
    </g>
    <g opacity="0.85">
        <path d="M55.2392 10.0293L57 9L57.5209 10.5128L55.7601 11.5422L55.2392 10.0293Z" fill="#302E2A" />
    </g>
    <g opacity="0.92">
        <path d="M20.0162 13.3082L18 13L18.5472 11.4965L20.5634 11.8047L20.0162 13.3082Z" fill="#302E2A" />
    </g>
    <g opacity="0.97">
        <path d="M23.0213 13.2729L21 13L21.5209 11.4872L23.5422 11.7601L23.0213 13.2729Z" fill="#302E2A" />
    </g>
    <g opacity="0.85">
        <path d="M26.0042 14.3783L24 14L24.5994 12.5165L26.6036 12.8948L26.0042 14.3783Z" fill="#302E2A" />
    </g>
    <g opacity="0.79">
        <path d="M25.4679 15.3464L27 14L27.8 15.3856L26.2679 16.7321L25.4679 15.3464Z" fill="#302E2A" />
    </g>
    <g opacity="0.91">
        <path d="M29.2132 15.8818L30 14L31.3265 14.8947L30.5397 16.7765L29.2132 15.8818Z" fill="#302E2A" />
    </g>
    <g opacity="0.98">
        <path d="M33.6198 10.0568L33 12L31.6006 11.2243L32.2204 9.28114L33.6198 10.0568Z" fill="#302E2A" />
    </g>
    <g opacity="0.77">
        <path d="M39.9636 13.5516L38 13L38.7264 11.5744L40.69 12.126L39.9636 13.5516Z" fill="#302E2A" />
    </g>
    <g opacity="0.77">
        <path d="M43.0127 13.67L41 14L41.0558 12.401L43.0686 12.071L43.0127 13.67Z" fill="#302E2A" />
    </g>
    <g opacity="0.76">
        <path d="M42.0957 9.96264L42 12L40.4475 11.6129L40.5433 9.57556L42.0957 9.96264Z" fill="#302E2A" />
    </g>
    <g opacity="0.71">
        <path d="M48.0354 14.1313L46 14L46.4141 12.4545L48.4495 12.5858L48.0354 14.1313Z" fill="#302E2A" />
    </g>
    <g opacity="0.87">
        <path d="M50.4481 11.0102L50 13L48.5383 12.3492L48.9864 10.3594L50.4481 11.0102Z" fill="#302E2A" />
    </g>
    <g opacity="0.79">
        <path d="M49.2108 11.0208L51 12L49.9715 13.2257L48.1823 12.2465L49.2108 11.0208Z" fill="#302E2A" />
    </g>
    <g opacity="0.99">
        <path d="M56.7079 14.9128L56 13L57.5803 12.7497L58.2882 14.6625L56.7079 14.9128Z" fill="#302E2A" />
    </g>
    <g opacity="0.72">
        <path d="M60.6771 15.1608L59 14L60.1509 12.8885L61.828 14.0494L60.6771 15.1608Z" fill="#302E2A" />
    </g>
    <g opacity="0.95">
        <path d="M61.4348 14.9927L61 13L62.5998 12.9721L63.0346 14.9648L61.4348 14.9927Z" fill="#302E2A" />
    </g>
    <g opacity="0.84">
        <path d="M17.5858 13.0463L17 15L15.5873 14.2488L16.173 12.2952L17.5858 13.0463Z" fill="#302E2A" />
    </g>
    <g opacity="0.78">
        <path d="M19.3464 18.9321L20 17L21.3856 17.8L20.7321 19.7321L19.3464 18.9321Z" fill="#302E2A" />
    </g>
    <path d="M18.9838 15.6918L21 16L20.4528 17.5035L18.4366 17.1953L18.9838 15.6918Z" fill="#302E2A" />
    <g opacity="0.79">
        <path d="M23.7356 14.3996L25 16L23.5744 16.7264L22.31 15.126L23.7356 14.3996Z" fill="#302E2A" />
    </g>
    <g opacity="0.88">
        <path d="M30.0395 17.0246L28 17L28.3327 15.435L30.3721 15.4595L30.0395 17.0246Z" fill="#302E2A" />
    </g>
    <g opacity="0.77">
        <path d="M29.0328 15.5385L31 15L31.1116 16.5961L29.1444 17.1346L29.0328 15.5385Z" fill="#302E2A" />
    </g>
    <g opacity="0.77">
        <path d="M35.2729 12.9787L35 15L33.4872 14.4791L33.7601 12.4578L35.2729 12.9787Z" fill="#302E2A" />
    </g>
    <g opacity="0.82">
        <path d="M39.1016 14.2835L38 16L36.8491 14.8885L37.9506 13.172L39.1016 14.2835Z" fill="#302E2A" />
    </g>
    <g opacity="0.72">
        <path d="M37.9727 16.2242L40 16L39.8606 17.5939L37.8333 17.8181L37.9727 16.2242Z" fill="#302E2A" />
    </g>
    <g opacity="0.97">
        <path d="M43.2186 14.3645L42 16L40.9294 14.811L42.148 13.1754L43.2186 14.3645Z" fill="#302E2A" />
    </g>
    <g opacity="0.95">
        <path d="M46.9081 16.7206L45 16L45.8479 14.6431L47.7559 15.3637L46.9081 16.7206Z" fill="#302E2A" />
    </g>
    <g opacity="0.71">
        <path d="M48.3435 15.8101L50 17L48.8298 18.0912L47.1733 16.9013L48.3435 15.8101Z" fill="#302E2A" />
    </g>
    <g opacity="0.71">
        <path d="M52.4272 13.0425L53 15L51.4061 15.1394L50.8333 13.1819L52.4272 13.0425Z" fill="#302E2A" />
    </g>
    <g opacity="0.87">
        <path d="M56.7165 18.1016L55 17L56.1115 15.8491L57.828 16.9506L56.7165 18.1016Z" fill="#302E2A" />
    </g>
    <g opacity="0.71">
        <path d="M58.3931 15.0528L59 17L57.4088 17.1672L56.8019 15.22L58.3931 15.0528Z" fill="#302E2A" />
    </g>
    <g opacity="0.92">
        <path d="M58.408 15.725L60 17L58.7743 18.0285L57.1823 16.7535L58.408 15.725Z" fill="#302E2A" />
    </g>
    <g opacity="0.78">
        <path d="M65.45 17.4344L64 16L65.3265 15.1053L66.7765 16.5397L65.45 17.4344Z" fill="#302E2A" />
    </g>
    <g opacity="0.96">
        <path d="M13.8677 18.8195L12 18L12.9177 16.6894L14.7855 17.5088L13.8677 18.8195Z" fill="#302E2A" />
    </g>
    <g opacity="0.76">
        <path d="M16.7045 17.8799L15 19L14.4006 17.5165L16.1052 16.3964L16.7045 17.8799Z" fill="#302E2A" />
    </g>
    <g opacity="0.8">
        <path d="M18.3464 21.9321L19 20L20.3856 20.8L19.7321 22.7321L18.3464 21.9321Z" fill="#302E2A" />
    </g>
    <path d="M22.1158 20.838L23 19L24.2778 19.9629L23.3936 21.8009L22.1158 20.838Z" fill="#302E2A" />
    <g opacity="0.74">
        <path d="M25.1016 18.2835L24 20L22.8491 18.8885L23.9506 17.172L25.1016 18.2835Z" fill="#302E2A" />
    </g>
    <g opacity="0.98">
        <path d="M29.1314 17.3029L28 19L26.8686 17.8686L28 16.1716L29.1314 17.3029Z" fill="#302E2A" />
    </g>
    <g opacity="0.96">
        <path d="M32.0182 19.7052L30 20L30.0837 18.4022L32.1019 18.1074L32.0182 19.7052Z" fill="#302E2A" />
    </g>
    <g opacity="0.89">
        <path d="M36.45 20.4344L35 19L36.3265 18.1053L37.7765 19.5397L36.45 20.4344Z" fill="#302E2A" />
    </g>
    <g opacity="0.9">
        <path d="M35.0015 18.2215L36 20L34.4783 20.4944L33.4799 18.7159L35.0015 18.2215Z" fill="#302E2A" />
    </g>
    <g opacity="0.77">
        <path d="M38.9743 19.7624L41 20L40.5056 21.5217L38.4799 21.2841L38.9743 19.7624Z" fill="#302E2A" />
    </g>
    <g opacity="0.87">
        <path d="M43.4595 18.5753L42 20L41.1286 18.6581L42.5881 17.2334L43.4595 18.5753Z" fill="#302E2A" />
    </g>
    <g opacity="0.9">
        <path d="M47.8869 18.2257L46 19L45.6947 17.4294L47.5816 16.6551L47.8869 18.2257Z" fill="#302E2A" />
    </g>
    <g opacity="0.88">
        <path d="M47.0102 17.5519L49 18L48.3492 19.4617L46.3594 19.0136L47.0102 17.5519Z" fill="#302E2A" />
    </g>
    <g opacity="0.97">
        <path d="M51.8071 21.8731L51 20L52.565 19.6673L53.3721 21.5405L51.8071 21.8731Z" fill="#302E2A" />
    </g>
    <g opacity="0.8">
        <path d="M53.0919 17.2794L55 18L54.1521 19.3569L52.2441 18.6363L53.0919 17.2794Z" fill="#302E2A" />
    </g>
    <g opacity="0.79">
        <path d="M58.2729 15.9787L58 18L56.4872 17.4791L56.7601 15.4578L58.2729 15.9787Z" fill="#302E2A" />
    </g>
    <g opacity="0.98">
        <path d="M59.8392 20.6771L61 19L62.1115 20.1509L60.9506 21.828L59.8392 20.6771Z" fill="#302E2A" />
    </g>
    <g opacity="0.89">
        <path d="M61.1717 18.904L63 18L63.4141 19.5455L61.5858 20.4495L61.1717 18.904Z" fill="#302E2A" />
    </g>
    <g opacity="0.97">
        <path d="M66.0602 15.9613L66 18L64.441 17.6401L64.5012 15.6014L66.0602 15.9613Z" fill="#302E2A" />
    </g>
    <g opacity="0.83">
        <path d="M12.7957 20.0327L11 21L10.5322 19.4699L12.3279 18.5026L12.7957 20.0327Z" fill="#302E2A" />
    </g>
    <g opacity="0.96">
        <path d="M12.4133 19.0027L12 21L10.5272 20.3748L10.9405 18.3775L12.4133 19.0027Z" fill="#302E2A" />
    </g>
    <g opacity="0.77">
        <path d="M16.5858 20.0463L16 22L14.5873 21.2488L15.173 19.2952L16.5858 20.0463Z" fill="#302E2A" />
    </g>
    <g opacity="0.93">
        <path d="M19.6069 24.9472L19 23L20.5912 22.8328L21.1981 24.78L19.6069 24.9472Z" fill="#302E2A" />
    </g>
    <g opacity="0.78">
        <path d="M20.0528 21.6069L22 21L22.1672 22.5912L20.22 23.1981L20.0528 21.6069Z" fill="#302E2A" />
    </g>
    <g opacity="0.79">
        <path d="M25.1603 20.1412L26 22L24.441 22.3599L23.6014 20.5012L25.1603 20.1412Z" fill="#302E2A" />
    </g>
    <g opacity="0.95">
        <path d="M28.8677 22.8195L27 22L27.9177 20.6894L29.7855 21.5088L28.8677 22.8195Z" fill="#302E2A" />
    </g>
    <g opacity="0.81">
        <path d="M32.0328 23.1668L30 23L30.441 21.462L32.4738 21.6288L32.0328 23.1668Z" fill="#302E2A" />
    </g>
    <g opacity="0.75">
        <path d="M32.148 23.8531L33 22L34.2944 22.9405L33.4425 24.7936L32.148 23.8531Z" fill="#302E2A" />
    </g>
    <g opacity="0.95">
        <path d="M39.8123 20.0642L38 21L37.559 19.462L39.3712 18.5262L39.8123 20.0642Z" fill="#302E2A" />
    </g>
    <g opacity="0.73">
        <path d="M40.7743 24.8869L40 23L41.5706 22.6947L42.3449 24.5816L40.7743 24.8869Z" fill="#302E2A" />
    </g>
    <g opacity="0.86">
        <path d="M43.4992 24.3829L42 23L43.2944 22.0595L44.7936 23.4425L43.4992 24.3829Z" fill="#302E2A" />
    </g>
    <g opacity="0.93">
        <path d="M43.9638 22.1178L46 22L45.7773 23.5844L43.7411 23.7022L43.9638 22.1178Z" fill="#302E2A" />
    </g>
    <g opacity="0.7">
        <path d="M49.2588 20.0998L50 22L48.4243 22.2778L47.6831 20.3777L49.2588 20.0998Z" fill="#302E2A" />
    </g>
    <g opacity="0.89">
        <path d="M53.4247 22.4595L52 21L53.3419 20.1286L54.7666 21.5881L53.4247 22.4595Z" fill="#302E2A" />
    </g>
    <g opacity="0.9">
        <path d="M54.2462 22.8952L55 21L56.3419 21.8714L55.5881 23.7666L54.2462 22.8952Z" fill="#302E2A" />
    </g>
    <g opacity="0.85">
        <path d="M55.1131 22.7743L57 22L57.3053 23.5706L55.4184 24.3449L55.1131 22.7743Z" fill="#302E2A" />
    </g>
    <g opacity="0.84">
        <path d="M64 20.6L62 21V19.4L64 19V20.6Z" fill="#302E2A" />
    </g>
    <g opacity="0.75">
        <path d="M62.635 20.9933L63 23L61.4002 22.9721L61.0352 20.9654L62.635 20.9933Z" fill="#302E2A" />
    </g>
    <g opacity="0.93">
        <path d="M66.4827 20.0183L66 22L64.5499 21.3238L65.0326 19.3421L66.4827 20.0183Z" fill="#302E2A" />
    </g>
    <g opacity="0.88">
        <path d="M8.06795 25.3464L10 26L9.2 27.3856L7.26795 26.7321L8.06795 25.3464Z" fill="#302E2A" />
    </g>
    <g opacity="0.72">
        <path d="M10.9895 23.6567L13 24L12.4266 25.4937L10.4161 25.1504L10.9895 23.6567Z" fill="#302E2A" />
    </g>
    <g opacity="0.91">
        <path d="M14.2762 25.0902L16 24L16.5734 25.4937L14.8496 26.5839L14.2762 25.0902Z" fill="#302E2A" />
    </g>
    <g opacity="0.94">
        <path d="M21.6644 24.8211L20 26L19.3492 24.5383L21.0136 23.3594L21.6644 24.8211Z" fill="#302E2A" />
    </g>
    <path d="M21.0602 21.9613L21 24L19.441 23.6401L19.5012 21.6014L21.0602 21.9613Z" fill="#302E2A" />
    <g opacity="0.72">
        <path d="M27.3829 22.5008L26 24L25.0595 22.7056L26.4425 21.2064L27.3829 22.5008Z" fill="#302E2A" />
    </g>
    <g opacity="0.81">
        <path d="M30.0162 26.3082L28 26L28.5472 24.4965L30.5634 24.8047L30.0162 26.3082Z" fill="#302E2A" />
    </g>
    <g opacity="0.89">
        <path d="M31.6198 23.0568L31 25L29.6006 24.2243L30.2204 22.2811L31.6198 23.0568Z" fill="#302E2A" />
    </g>
    <g opacity="0.98">
        <path d="M36.9249 25.3255L35 26L34.7773 24.4156L36.7022 23.7411L36.9249 25.3255Z" fill="#302E2A" />
    </g>
    <g opacity="0.81">
        <path d="M38.0309 23.8112L36 24L36.1672 22.4088L38.1981 22.22L38.0309 23.8112Z" fill="#302E2A" />
    </g>
    <g opacity="0.84">
        <path d="M42.0715 24.2645L41 26L39.8298 24.9088L40.9013 23.1733L42.0715 24.2645Z" fill="#302E2A" />
    </g>
    <g opacity="0.72">
        <path d="M43.9358 27.8123L43 26L44.538 25.559L45.4738 27.3712L43.9358 27.8123Z" fill="#302E2A" />
    </g>
    <g opacity="0.7">
        <path d="M45.5652 22.0073L46 24L44.4002 24.0279L43.9654 22.0352L45.5652 22.0073Z" fill="#302E2A" />
    </g>
    <g opacity="0.76">
        <path d="M51.9848 25.5304L50 26L49.9442 24.401L51.929 23.9314L51.9848 25.5304Z" fill="#302E2A" />
    </g>
    <g opacity="0.9">
        <path d="M54.592 27.275L53 26L54.2257 24.9715L55.8177 26.2465L54.592 27.275Z" fill="#302E2A" />
    </g>
    <g opacity="0.94">
        <path d="M54.1533 26.0338L54 24L55.5881 24.195L55.7414 26.2288L54.1533 26.0338Z" fill="#302E2A" />
    </g>
    <g opacity="0.72">
        <path d="M57.5172 22.0271L57 24L55.5619 23.2986L56.0792 21.3257L57.5172 22.0271Z" fill="#302E2A" />
    </g>
    <g opacity="0.87">
        <path d="M57.9743 24.7624L60 25L59.5056 26.5217L57.4799 26.2841L57.9743 24.7624Z" fill="#302E2A" />
    </g>
    <g opacity="0.78">
        <path d="M62.6536 24.4679L64 26L62.6144 26.8L61.2679 25.2679L62.6536 24.4679Z" fill="#302E2A" />
    </g>
    <g opacity="0.95">
        <path d="M66.3433 21.9895L66 24L64.5063 23.4266L64.8496 21.4161L66.3433 21.9895Z" fill="#302E2A" />
    </g>
    <g opacity="0.73">
        <path d="M71.2078 27.6436L70 26L71.4501 25.3238L72.6579 26.9674L71.2078 27.6436Z" fill="#302E2A" />
    </g>
    <g opacity="0.78">
        <path d="M11.9973 28.4133L10 28L10.6252 26.5272L12.6225 26.9405L11.9973 28.4133Z" fill="#302E2A" />
    </g>
    <g opacity="0.89">
        <path d="M14.9358 29.8123L14 28L15.538 27.559L16.4738 29.3712L14.9358 29.8123Z" fill="#302E2A" />
    </g>
    <g opacity="0.85">
        <path d="M15.3464 30.9321L16 29L17.3856 29.8L16.7321 31.7321L15.3464 30.9321Z" fill="#302E2A" />
    </g>
    <g opacity="0.82">
        <path d="M19.0015 27.2215L20 29L18.4783 29.4944L17.4799 27.7159L19.0015 27.2215Z" fill="#302E2A" />
    </g>
    <g opacity="0.93">
        <path d="M24.0213 28.2729L22 28L22.5209 26.4872L24.5422 26.7601L24.0213 28.2729Z" fill="#302E2A" />
    </g>
    <g opacity="0.91">
        <path d="M24.2794 30.9081L25 29L26.3569 29.8479L25.6363 31.7559L24.2794 30.9081Z" fill="#302E2A" />
    </g>
    <g opacity="0.8">
        <path d="M27.5304 27.0152L28 29L26.401 29.0558L25.9314 27.071L27.5304 27.0152Z" fill="#302E2A" />
    </g>
    <g opacity="0.78">
        <path d="M31.9754 30.0395L32 28L33.565 28.3327L33.5405 30.3721L31.9754 30.0395Z" fill="#302E2A" />
    </g>
    <g opacity="0.7">
        <path d="M35.6971 28.1314L34 27L35.1314 25.8686L36.8284 27L35.6971 28.1314Z" fill="#302E2A" />
    </g>
    <g opacity="0.72">
        <path d="M35.3802 28.9432L36 27L37.3994 27.7757L36.7796 29.7189L35.3802 28.9432Z" fill="#302E2A" />
    </g>
    <g opacity="0.72">
        <path d="M43.0296 27.2022L41 27L41.4678 25.4699L43.4974 25.6721L43.0296 27.2022Z" fill="#302E2A" />
    </g>
    <g opacity="0.93">
        <path d="M42.011 30.0396L42 28L43.5706 28.3053L43.5816 30.3449L42.011 30.0396Z" fill="#302E2A" />
    </g>
    <g opacity="0.81">
        <path d="M48.6004 25.7356L47 27L46.2736 25.5744L47.874 24.31L48.6004 25.7356Z" fill="#302E2A" />
    </g>
    <g opacity="0.86">
        <path d="M48.5041 28.9763L48 27L49.5978 26.9163L50.1019 28.8926L48.5041 28.9763Z" fill="#302E2A" />
    </g>
    <g opacity="0.75">
        <path d="M50.4959 26.0237L51 28L49.4022 28.0837L48.8981 26.1074L50.4959 26.0237Z" fill="#302E2A" />
    </g>
    <g opacity="0.97">
        <path d="M52.2955 28.1201L54 27L54.5994 28.4835L52.8948 29.6036L52.2955 28.1201Z" fill="#302E2A" />
    </g>
    <g opacity="0.91">
        <path d="M60.5321 27.6536L59 29L58.2 27.6144L59.7321 26.2679L60.5321 27.6536Z" fill="#302E2A" />
    </g>
    <g opacity="0.91">
        <path d="M62.4595 25.5753L61 27L60.1286 25.6581L61.5881 24.2334L62.4595 25.5753Z" fill="#302E2A" />
    </g>
    <g opacity="0.73">
        <path d="M64.3255 27.0751L65 29L63.4156 29.2227L62.7411 27.2978L64.3255 27.0751Z" fill="#302E2A" />
    </g>
    <g opacity="0.7">
        <path d="M64.2645 27.9285L66 29L64.9088 30.1702L63.1733 29.0987L64.2645 27.9285Z" fill="#302E2A" />
    </g>
    <g opacity="0.86">
        <path d="M69.8332 30.0328L70 28L71.538 28.441L71.3712 30.4738L69.8332 30.0328Z" fill="#302E2A" />
    </g>
    <g opacity="0.82">
        <path d="M70.7079 26.4219L72 28L70.5873 28.7512L69.2952 27.173L70.7079 26.4219Z" fill="#302E2A" />
    </g>
    <g opacity="0.97">
        <path d="M7.35654 28.4769L6 30L5.0371 28.7222L6.39364 27.1991L7.35654 28.4769Z" fill="#302E2A" />
    </g>
    <g opacity="0.97">
        <path d="M10.9043 32.0374L11 30L12.5525 30.3871L12.4567 32.4244L10.9043 32.0374Z" fill="#302E2A" />
    </g>
    <g opacity="0.9">
        <path d="M15.9672 30.4615L14 31L13.8884 29.4039L15.8556 28.8654L15.9672 30.4615Z" fill="#302E2A" />
    </g>
    <g opacity="0.74">
        <path d="M18.4992 31.3829L17 30L18.2944 29.0595L19.7936 30.4425L18.4992 31.3829Z" fill="#302E2A" />
    </g>
    <g opacity="0.91">
        <path d="M19.8842 29.162L19 31L17.7222 30.0371L18.6064 28.1991L19.8842 29.162Z" fill="#302E2A" />
    </g>
    <g opacity="0.88">
        <path d="M23.7538 28.1048L23 30L21.6581 29.1286L22.4119 27.2334L23.7538 28.1048Z" fill="#302E2A" />
    </g>
    <g opacity="0.94">
        <path d="M27.2078 33.6436L26 32L27.4501 31.3238L28.6579 32.9674L27.2078 33.6436Z" fill="#302E2A" />
    </g>
    <g opacity="0.91">
        <path d="M25.9613 31.9398L28 32L27.6401 33.559L25.6014 33.4988L25.9613 31.9398Z" fill="#302E2A" />
    </g>
    <g opacity="0.77">
        <path d="M33.0599 32.7426L32 31L33.5035 30.4528L34.5634 32.1953L33.0599 32.7426Z" fill="#302E2A" />
    </g>
    <g opacity="0.94">
        <path d="M36.0273 29.7758L34 30L34.1394 28.4061L36.1667 28.1819L36.0273 29.7758Z" fill="#302E2A" />
    </g>
    <g opacity="0.9">
        <path d="M37.2729 28.9787L37 31L35.4872 30.4791L35.7601 28.4578L37.2729 28.9787Z" fill="#302E2A" />
    </g>
    <g opacity="0.92">
        <path d="M37.9098 29.2762L39 31L37.5063 31.5734L36.4161 29.8496L37.9098 29.2762Z" fill="#302E2A" />
    </g>
    <g opacity="0.97">
        <path d="M41.0027 29.5867L43 30L42.3748 31.4728L40.3775 31.0595L41.0027 29.5867Z" fill="#302E2A" />
    </g>
    <path d="M47.9128 31.2921L46 32L45.7497 30.4197L47.6625 29.7118L47.9128 31.2921Z" fill="#302E2A" />
    <g opacity="0.97">
        <path d="M50.0822 33.038L50 31L51.5803 31.2503L51.6625 33.2882L50.0822 33.038Z" fill="#302E2A" />
    </g>
    <g opacity="0.8">
        <path d="M50.1269 31.8071L52 31L52.3327 32.565L50.4595 33.3721L50.1269 31.8071Z" fill="#302E2A" />
    </g>
    <g opacity="0.85">
        <path d="M52.9638 32.1178L55 32L54.7773 33.5844L52.7411 33.7022L52.9638 32.1178Z" fill="#302E2A" />
    </g>
    <g opacity="0.98">
        <path d="M59.2595 34.023L59 32L60.5961 32.1116L60.8556 34.1346L59.2595 34.023Z" fill="#302E2A" />
    </g>
    <g opacity="0.93">
        <path d="M60.6918 33.0162L61 31L62.5035 31.5472L62.1953 33.5634L60.6918 33.0162Z" fill="#302E2A" />
    </g>
    <g opacity="0.7">
        <path d="M63.7356 29.3996L65 31L63.5744 31.7264L62.31 30.126L63.7356 29.3996Z" fill="#302E2A" />
    </g>
    <g opacity="0.97">
        <path d="M66.408 28.725L68 30L66.7743 31.0285L65.1823 29.7535L66.408 28.725Z" fill="#302E2A" />
    </g>
    <g opacity="0.9">
        <path d="M68.2955 32.1201L70 31L70.5994 32.4835L68.8948 33.6036L68.2955 32.1201Z" fill="#302E2A" />
    </g>
    <g opacity="0.73">
        <path d="M71.3564 32.2078L73 31L73.6762 32.4501L72.0326 33.6579L71.3564 32.2078Z" fill="#302E2A" />
    </g>
    <path d="M4.753 35.614L6 34L7.04969 35.2075L5.8027 36.8215L4.753 35.614Z" fill="#302E2A" />
    <g opacity="0.83">
        <path d="M8.00154 32.2215L9 34L7.47831 34.4944L6.47985 32.7159L8.00154 32.2215Z" fill="#302E2A" />
    </g>
    <g opacity="0.7">
        <path d="M12.2835 33.8984L14 35L12.8885 36.1509L11.172 35.0494L12.2835 33.8984Z" fill="#302E2A" />
    </g>
    <g opacity="0.71">
        <path d="M14.2282 33.9898L16 35L14.9503 36.2075L13.1785 35.1973L14.2282 33.9898Z" fill="#302E2A" />
    </g>
    <g opacity="0.98">
        <path d="M18.9673 35.7957L18 34L19.5301 33.5322L20.4974 35.3279L18.9673 35.7957Z" fill="#302E2A" />
    </g>
    <g opacity="0.81">
        <path d="M21.8467 32.9662L22 35L20.4119 34.805L20.2586 32.7712L21.8467 32.9662Z" fill="#302E2A" />
    </g>
    <g opacity="0.84">
        <path d="M26.3729 35.5083L25 34L26.3715 33.1759L27.7444 34.6843L26.3729 35.5083Z" fill="#302E2A" />
    </g>
    <g opacity="0.87">
        <path d="M25.8101 34.6565L27 33L28.0912 34.1702L26.9013 35.8267L25.8101 34.6565Z" fill="#302E2A" />
    </g>
    <g opacity="0.94">
        <path d="M30.128 31.1562L31 33L29.4475 33.3871L28.5756 31.5433L30.128 31.1562Z" fill="#302E2A" />
    </g>
    <g opacity="0.71">
        <path d="M32.6271 31.4917L34 33L32.6285 33.8241L31.2556 32.3157L32.6271 31.4917Z" fill="#302E2A" />
    </g>
    <g opacity="0.98">
        <path d="M36.0679 33.3464L38 34L37.2 35.3856L35.2679 34.7321L36.0679 33.3464Z" fill="#302E2A" />
    </g>
    <g opacity="0.91">
        <path d="M38.635 31.9933L39 34L37.4002 33.9721L37.0352 31.9654L38.635 31.9933Z" fill="#302E2A" />
    </g>
    <g opacity="0.84">
        <path d="M44.2242 37.0273L44 35L45.5939 35.1394L45.8181 37.1667L44.2242 37.0273Z" fill="#302E2A" />
    </g>
    <g opacity="0.7">
        <path d="M46.2257 33.1131L47 35L45.4294 35.3053L44.6551 33.4184L46.2257 33.1131Z" fill="#302E2A" />
    </g>
    <g opacity="0.88">
        <path d="M50.9432 34.6198L49 34L49.7757 32.6006L51.7189 33.2204L50.9432 34.6198Z" fill="#302E2A" />
    </g>
    <path d="M53.2022 31.9704L53 34L51.4699 33.5322L51.6721 31.5026L53.2022 31.9704Z" fill="#302E2A" />
    <g opacity="0.73">
        <path d="M52.3029 33.8686L54 35L52.8686 36.1314L51.1716 35L52.3029 33.8686Z" fill="#302E2A" />
    </g>
    <g opacity="0.84">
        <path d="M55.1412 33.8397L57 33L57.3599 34.559L55.5012 35.3986L55.1412 33.8397Z" fill="#302E2A" />
    </g>
    <g opacity="0.91">
        <path d="M60.0919 32.2794L62 33L61.1521 34.3569L59.2441 33.6363L60.0919 32.2794Z" fill="#302E2A" />
    </g>
    <g opacity="0.7">
        <path d="M64.0293 36.7608L63 35L64.5128 34.4791L65.5422 36.2399L64.0293 36.7608Z" fill="#302E2A" />
    </g>
    <g opacity="0.94">
        <path d="M67.4696 35.9848L67 34L68.599 33.9442L69.0686 35.929L67.4696 35.9848Z" fill="#302E2A" />
    </g>
    <g opacity="0.86">
        <path d="M69.6198 32.0568L69 34L67.6006 33.2243L68.2204 31.2811L69.6198 32.0568Z" fill="#302E2A" />
    </g>
    <g opacity="0.85">
        <path d="M6.03946 36.0246L4 36L4.33266 34.435L6.37212 34.4595L6.03946 36.0246Z" fill="#302E2A" />
    </g>
    <g opacity="0.81">
        <path d="M6.12687 36.8071L8 36L8.33266 37.565L6.45953 38.3721L6.12687 36.8071Z" fill="#302E2A" />
    </g>
    <g opacity="0.99">
        <path d="M10.33 40.0127L10 38L11.599 38.0558L11.929 40.0686L10.33 40.0127Z" fill="#302E2A" />
    </g>
    <g opacity="0.96">
        <path d="M13.806 37.9478L12 37L13.0069 35.7566L14.8129 36.7043L13.806 37.9478Z" fill="#302E2A" />
    </g>
    <g opacity="0.83">
        <path d="M16.9575 35.4272L15 36L14.8606 34.4061L16.8181 33.8333L16.9575 35.4272Z" fill="#302E2A" />
    </g>
    <g opacity="0.86">
        <path d="M21.0309 37.8112L19 38L19.1672 36.4088L21.1981 36.22L21.0309 37.8112Z" fill="#302E2A" />
    </g>
    <g opacity="0.9">
        <path d="M22.8818 36.7868L21 36L21.8947 34.6735L23.7765 35.4603L22.8818 36.7868Z" fill="#302E2A" />
    </g>
    <g opacity="0.91">
        <path d="M23.8332 39.0328L24 37L25.538 37.441L25.3712 39.4738L23.8332 39.0328Z" fill="#302E2A" />
    </g>
    <g opacity="0.95">
        <path d="M25.8503 36.3153L27 38L25.5272 38.6252L24.3775 36.9405L25.8503 36.3153Z" fill="#302E2A" />
    </g>
    <g opacity="0.83">
        <path d="M29.1323 36.1805L31 37L30.0823 38.3106L28.2145 37.4912L29.1323 36.1805Z" fill="#302E2A" />
    </g>
    <g opacity="0.96">
        <path d="M36.038 37.9178L34 38L34.2503 36.4197L36.2882 36.3375L36.038 37.9178Z" fill="#302E2A" />
    </g>
    <g opacity="0.97">
        <path d="M34.1412 37.8397L36 37L36.3599 38.559L34.5012 39.3986L34.1412 37.8397Z" fill="#302E2A" />
    </g>
    <g opacity="0.82">
        <path d="M40.872 39.8438L40 38L41.5525 37.6129L42.4244 39.4567L40.872 39.8438Z" fill="#302E2A" />
    </g>
    <g opacity="0.75">
        <path d="M41.1929 36.1269L42 38L40.435 38.3327L39.6279 36.4595L41.1929 36.1269Z" fill="#302E2A" />
    </g>
    <g opacity="0.71">
        <path d="M47.0182 35.7052L45 36L45.0837 34.4022L47.1019 34.1074L47.0182 35.7052Z" fill="#302E2A" />
    </g>
    <g opacity="0.76">
        <path d="M50.7412 38.9002L50 37L51.5757 36.7222L52.3169 38.6223L50.7412 38.9002Z" fill="#302E2A" />
    </g>
    <g opacity="0.85">
        <path d="M54.8677 38.8195L53 38L53.9177 36.6894L55.7855 37.5088L54.8677 38.8195Z" fill="#302E2A" />
    </g>
    <g opacity="0.76">
        <path d="M53.0637 36.6408L55 36L55.195 37.5881L53.2586 38.2288L53.0637 36.6408Z" fill="#302E2A" />
    </g>
    <g opacity="0.73">
        <path d="M56.1158 37.838L57 36L58.2778 36.9629L57.3936 38.8009L56.1158 37.838Z" fill="#302E2A" />
    </g>
    <g opacity="0.72">
        <path d="M61.2242 38.0273L61 36L62.5939 36.1394L62.8181 38.1667L61.2242 38.0273Z" fill="#302E2A" />
    </g>
    <g opacity="0.7">
        <path d="M61.5008 34.6171L63 36L61.7056 36.9405L60.2064 35.5575L61.5008 34.6171Z" fill="#302E2A" />
    </g>
    <g opacity="0.88">
        <path d="M68.9478 35.194L68 37L66.7566 35.9931L67.7043 34.1871L68.9478 35.194Z" fill="#302E2A" />
    </g>
    <g opacity="0.81">
        <path d="M70.0599 38.7426L69 37L70.5035 36.4528L71.5634 38.1953L70.0599 38.7426Z" fill="#302E2A" />
    </g>
    <g opacity="0.94">
        <path d="M74.6198 35.0568L74 37L72.6006 36.2243L73.2204 34.2811L74.6198 35.0568Z" fill="#302E2A" />
    </g>
    <g opacity="0.84">
        <path d="M7.03384 38.8467L5 39L5.19499 37.4119L7.22883 37.2586L7.03384 38.8467Z" fill="#302E2A" />
    </g>
    <g opacity="0.97">
        <path d="M7.90401 41.8283L7 40L8.54548 39.5859L9.44949 41.4142L7.90401 41.8283Z" fill="#302E2A" />
    </g>
    <path d="M9.68053 39.4447L11 41L9.60061 41.7757L8.28114 40.2204L9.68053 39.4447Z" fill="#302E2A" />
    <g opacity="0.99">
        <path d="M15.7355 40.0715L14 39L15.0912 37.8298L16.8267 38.9013L15.7355 40.0715Z" fill="#302E2A" />
    </g>
    <g opacity="0.85">
        <path d="M18.4748 42.4089L17 41L18.3106 40.0823L19.7855 41.4912L18.4748 42.4089Z" fill="#302E2A" />
    </g>
    <g opacity="0.98">
        <path d="M17.5405 42.4247L19 41L19.8714 42.3419L18.4119 43.7666L17.5405 42.4247Z" fill="#302E2A" />
    </g>
    <g opacity="0.92">
        <path d="M21.7079 42.9128L21 41L22.5803 40.7497L23.2882 42.6625L21.7079 42.9128Z" fill="#302E2A" />
    </g>
    <g opacity="0.76">
        <path d="M26.2644 40.6004L25 39L26.4256 38.2736L27.69 39.874L26.2644 40.6004Z" fill="#302E2A" />
    </g>
    <g opacity="0.87">
        <path d="M29.6355 41.2186L28 40L29.189 38.9294L30.8246 40.148L29.6355 41.2186Z" fill="#302E2A" />
    </g>
    <g opacity="0.92">
        <path d="M29.6435 40.5231L31 39L31.9629 40.2778L30.6064 41.8009L29.6435 40.5231Z" fill="#302E2A" />
    </g>
    <g opacity="0.71">
        <path d="M35.4595 38.5753L34 40L33.1286 38.6581L34.5881 37.2334L35.4595 38.5753Z" fill="#302E2A" />
    </g>
    <g opacity="0.86">
        <path d="M34.9626 39.9043L37 40L36.6129 41.5525L34.5756 41.4567L34.9626 39.9043Z" fill="#302E2A" />
    </g>
    <g opacity="0.98">
        <path d="M39.753 42.614L41 41L42.0497 42.2075L40.8027 43.8215L39.753 42.614Z" fill="#302E2A" />
    </g>
    <g opacity="0.7">
        <path d="M42.5008 38.6171L44 40L42.7056 40.9405L41.2064 39.5575L42.5008 38.6171Z" fill="#302E2A" />
    </g>
    <g opacity="0.95">
        <path d="M45.3128 42.9203L46 41L47.3715 41.8241L46.6843 43.7444L45.3128 42.9203Z" fill="#302E2A" />
    </g>
    <g opacity="0.82">
        <path d="M49.8123 40.0642L48 41L47.559 39.462L49.3712 38.5262L49.8123 40.0642Z" fill="#302E2A" />
    </g>
    <g opacity="0.85">
        <path d="M48.9613 39.9398L51 40L50.6401 41.559L48.6014 41.4988L48.9613 39.9398Z" fill="#302E2A" />
    </g>
    <g opacity="0.76">
        <path d="M55.3195 41.5553L54 40L55.3994 39.2243L56.7189 40.7796L55.3195 41.5553Z" fill="#302E2A" />
    </g>
    <g opacity="0.71">
        <path d="M56.1269 39.8071L58 39L58.3327 40.565L56.4595 41.3721L56.1269 39.8071Z" fill="#302E2A" />
    </g>
    <g opacity="0.79">
        <path d="M62.6436 38.7922L61 40L60.3238 38.5499L61.9674 37.3421L62.6436 38.7922Z" fill="#302E2A" />
    </g>
    <g opacity="0.91">
        <path d="M61.5656 40.45L63 39L63.8947 40.3265L62.4603 41.7765L61.5656 40.45Z" fill="#302E2A" />
    </g>
    <g opacity="0.84">
        <path d="M67.6408 42.9363L67 41L68.5881 40.805L69.2288 42.7414L67.6408 42.9363Z" fill="#302E2A" />
    </g>
    <g opacity="0.7">
        <path d="M71.8195 39.1323L71 41L69.6894 40.0823L70.5088 38.2145L71.8195 39.1323Z" fill="#302E2A" />
    </g>
    <g opacity="0.89">
        <path d="M5.38023 43.9432L6 42L7.39939 42.7757L6.77962 44.7189L5.38023 43.9432Z" fill="#302E2A" />
    </g>
    <path d="M7.11825 42.2132L9 43L8.10529 44.3265L6.22354 43.5397L7.11825 42.2132Z" fill="#302E2A" />
    <g opacity="0.84">
        <path d="M11.0751 42.6745L13 42L13.2227 43.5844L11.2978 44.2589L11.0751 42.6745Z" fill="#302E2A" />
    </g>
    <g opacity="0.89">
        <path d="M13.0027 41.5867L15 42L14.3748 43.4728L12.3775 43.0595L13.0027 41.5867Z" fill="#302E2A" />
    </g>
    <g opacity="0.98">
        <path d="M18.3802 44.9432L19 43L20.3994 43.7757L19.7796 45.7189L18.3802 44.9432Z" fill="#302E2A" />
    </g>
    <g opacity="0.92">
        <path d="M21.5519 43.9898L22 42L23.4617 42.6508L23.0136 44.6406L21.5519 43.9898Z" fill="#302E2A" />
    </g>
    <g opacity="0.84">
        <path d="M24.1562 42.872L26 42L26.3871 43.5525L24.5433 44.4244L24.1562 42.872Z" fill="#302E2A" />
    </g>
    <g opacity="0.72">
        <path d="M28.4828 45.9729L29 44L30.4381 44.7014L29.9208 46.6743L28.4828 45.9729Z" fill="#302E2A" />
    </g>
    <g opacity="0.84">
        <path d="M30.4959 42.0237L31 44L29.4022 44.0837L28.8981 42.1074L30.4959 42.0237Z" fill="#302E2A" />
    </g>
    <g opacity="0.85">
        <path d="M34.8842 41.162L34 43L32.7222 42.0371L33.6064 40.1991L34.8842 41.162Z" fill="#302E2A" />
    </g>
    <g opacity="0.78">
        <path d="M39.9472 41.3931L38 42L37.8328 40.4088L39.78 39.8019L39.9472 41.3931Z" fill="#302E2A" />
    </g>
    <g opacity="0.84">
        <path d="M38.2392 43.0293L40 42L40.5209 43.5128L38.7601 44.5422L38.2392 43.0293Z" fill="#302E2A" />
    </g>
    <g opacity="0.76">
        <path d="M42.8392 45.6771L44 44L45.1115 45.1509L43.9506 46.828L42.8392 45.6771Z" fill="#302E2A" />
    </g>
    <g opacity="0.74">
        <path d="M49.0362 43.8822L47 44L47.2227 42.4156L49.2589 42.2978L49.0362 43.8822Z" fill="#302E2A" />
    </g>
    <g opacity="0.75">
        <path d="M47.6217 46.0042L48 44L49.4835 44.5994L49.1052 46.6036L47.6217 46.0042Z" fill="#302E2A" />
    </g>
    <g opacity="0.95">
        <path d="M54.5553 41.6805L53 43L52.2243 41.6006L53.7796 40.2811L54.5553 41.6805Z" fill="#302E2A" />
    </g>
    <g opacity="0.83">
        <path d="M54.3435 41.8101L56 43L54.8298 44.0912L53.1733 42.9013L54.3435 41.8101Z" fill="#302E2A" />
    </g>
    <g opacity="0.8">
        <path d="M55.3229 41.8392L57 43L55.8491 44.1115L54.172 42.9506L55.3229 41.8392Z" fill="#302E2A" />
    </g>
    <g opacity="0.88">
        <path d="M61.8731 43.1929L60 44L59.6673 42.435L61.5405 41.6279L61.8731 43.1929Z" fill="#302E2A" />
    </g>
    <g opacity="0.94">
        <path d="M63.1131 44.7743L65 44L65.3053 45.5706L63.4184 46.3449L63.1131 44.7743Z" fill="#302E2A" />
    </g>
    <g opacity="0.87">
        <path d="M66.0602 40.9613L66 43L64.441 42.6401L64.5012 40.6014L66.0602 40.9613Z" fill="#302E2A" />
    </g>
    <g opacity="0.75">
        <path d="M72.0293 43.7608L71 42L72.5128 41.4791L73.5422 43.2399L72.0293 43.7608Z" fill="#302E2A" />
    </g>
    <g opacity="0.93">
        <path d="M6.9973 45.4133L5 45L5.62517 43.5272L7.62247 43.9405L6.9973 45.4133Z" fill="#302E2A" />
    </g>
    <g opacity="0.74">
        <path d="M7.73551 48.0715L6 47L7.0912 45.8298L8.8267 46.9013L7.73551 48.0715Z" fill="#302E2A" />
    </g>
    <g opacity="0.93">
        <path d="M9.18773 46.9358L11 46L11.441 47.538L9.62875 48.4738L9.18773 46.9358Z" fill="#302E2A" />
    </g>
    <g opacity="0.7">
        <path d="M11.2043 47.9673L13 47L13.4678 48.5301L11.6721 49.4974L11.2043 47.9673Z" fill="#302E2A" />
    </g>
    <g opacity="0.99">
        <path d="M18.592 46.275L17 45L18.2257 43.9715L19.8177 45.2465L18.592 46.275Z" fill="#302E2A" />
    </g>
    <g opacity="0.83">
        <path d="M17.6805 44.4447L19 46L17.6006 46.7757L16.2811 45.2204L17.6805 44.4447Z" fill="#302E2A" />
    </g>
    <g opacity="0.93">
        <path d="M21.8195 44.1323L21 46L19.6894 45.0823L20.5088 43.2145L21.8195 44.1323Z" fill="#302E2A" />
    </g>
    <g opacity="0.92">
        <path d="M25.6436 44.7922L24 46L23.3238 44.5499L24.9674 43.3421L25.6436 44.7922Z" fill="#302E2A" />
    </g>
    <g opacity="0.98">
        <path d="M25.0528 45.6069L27 45L27.1672 46.5912L25.22 47.1981L25.0528 45.6069Z" fill="#302E2A" />
    </g>
    <g opacity="0.72">
        <path d="M32.7538 45.1048L32 47L30.6581 46.1286L31.4119 44.2334L32.7538 45.1048Z" fill="#302E2A" />
    </g>
    <g opacity="0.89">
        <path d="M32.0073 46.4348L34 46L34.0279 47.5998L32.0352 48.0346L32.0073 46.4348Z" fill="#302E2A" />
    </g>
    <g opacity="0.7">
        <path d="M39.3729 47.5083L38 46L39.3715 45.1759L40.7444 46.6843L39.3729 47.5083Z" fill="#302E2A" />
    </g>
    <g opacity="0.81">
        <path d="M41.0105 45.3433L39 45L39.5734 43.5063L41.5839 43.8496L41.0105 45.3433Z" fill="#302E2A" />
    </g>
    <g opacity="0.81">
        <path d="M41.9043 47.0374L42 45L43.5525 45.3871L43.4567 47.4244L41.9043 47.0374Z" fill="#302E2A" />
    </g>
    <g opacity="0.91">
        <path d="M45.0246 42.9605L45 45L43.435 44.6673L43.4595 42.6279L45.0246 42.9605Z" fill="#302E2A" />
    </g>
    <g opacity="0.82">
        <path d="M50.8531 46.852L49 46L49.9405 44.7056L51.7936 45.5575L50.8531 46.852Z" fill="#302E2A" />
    </g>
    <g opacity="0.97">
        <path d="M50.9613 44.9398L53 45L52.6401 46.559L50.6014 46.4988L50.9613 44.9398Z" fill="#302E2A" />
    </g>
    <g opacity="0.91">
        <path d="M52.0637 47.6408L54 47L54.195 48.5881L52.2586 49.2288L52.0637 47.6408Z" fill="#302E2A" />
    </g>
    <g opacity="0.79">
        <path d="M59.1314 44.3029L58 46L56.8686 44.8686L58 43.1716L59.1314 44.3029Z" fill="#302E2A" />
    </g>
    <g opacity="0.79">
        <path d="M64.0396 46.989L62 47L62.3053 45.4294L64.3449 45.4184L64.0396 46.989Z" fill="#302E2A" />
    </g>
    <g opacity="0.86">
        <path d="M66.6355 46.2186L65 45L66.189 43.9294L67.8246 45.148L66.6355 46.2186Z" fill="#302E2A" />
    </g>
    <g opacity="0.78">
        <path d="M69.2186 43.3645L68 45L66.9294 43.811L68.148 42.1754L69.2186 43.3645Z" fill="#302E2A" />
    </g>
    <g opacity="0.71">
        <path d="M71.2363 46.6222L70 45L71.4381 44.2986L72.6743 45.9208L71.2363 46.6222Z" fill="#302E2A" />
    </g>
    <g opacity="0.94">
        <path d="M71.5867 46.9973L72 45L73.4728 45.6252L73.0595 47.6225L71.5867 46.9973Z" fill="#302E2A" />
    </g>
    <g opacity="0.74">
        <path d="M8.16082 47.3229L7 49L5.88855 47.8491L7.04936 46.172L8.16082 47.3229Z" fill="#302E2A" />
    </g>
    <g opacity="0.97">
        <path d="M10.7079 49.9128L10 48L11.5803 47.7497L12.2882 49.6625L10.7079 49.9128Z" fill="#302E2A" />
    </g>
    <g opacity="0.88">
        <path d="M11.9727 50.2242L14 50L13.8606 51.5939L11.8333 51.8181L11.9727 50.2242Z" fill="#302E2A" />
    </g>
    <g opacity="0.91">
        <path d="M17.9128 47.2921L16 48L15.7497 46.4197L17.6625 45.7118L17.9128 47.2921Z" fill="#302E2A" />
    </g>
    <g opacity="0.77">
        <path d="M19.0602 46.9613L19 49L17.441 48.6401L17.5012 46.6014L19.0602 46.9613Z" fill="#302E2A" />
    </g>
    <g opacity="0.8">
        <path d="M25.0328 48.1668L23 48L23.441 46.462L25.4738 46.6288L25.0328 48.1668Z" fill="#302E2A" />
    </g>
    <g opacity="0.79">
        <path d="M23.2462 49.8952L24 48L25.3419 48.8714L24.5881 50.7666L23.2462 49.8952Z" fill="#302E2A" />
    </g>
    <g opacity="0.85">
        <path d="M29.3195 49.5553L28 48L29.3994 47.2243L30.7189 48.7796L29.3195 49.5553Z" fill="#302E2A" />
    </g>
    <g opacity="0.79">
        <path d="M31.4827 48.0183L31 50L29.5499 49.3238L30.0326 47.3421L31.4827 48.0183Z" fill="#302E2A" />
    </g>
    <g opacity="0.7">
        <path d="M35.3729 50.5083L34 49L35.3715 48.1759L36.7444 49.6843L35.3729 50.5083Z" fill="#302E2A" />
    </g>
    <g opacity="0.89">
        <path d="M34.0637 48.6408L36 48L36.195 49.5881L34.2586 50.2288L34.0637 48.6408Z" fill="#302E2A" />
    </g>
    <g opacity="0.88">
        <path d="M41.4 50L41 48H42.6L43 50H41.4Z" fill="#302E2A" />
    </g>
    <g opacity="0.9">
        <path d="M46.0354 49.1313L44 49L44.4141 47.4545L46.4495 47.5858L46.0354 49.1313Z" fill="#302E2A" />
    </g>
    <g opacity="0.7">
        <path d="M44.0528 49.6069L46 49L46.1672 50.5912L44.22 51.1981L44.0528 49.6069Z" fill="#302E2A" />
    </g>
    <g opacity="0.7">
        <path d="M46.0027 48.5867L48 49L47.3748 50.4728L45.3775 50.0595L46.0027 48.5867Z" fill="#302E2A" />
    </g>
    <g opacity="0.98">
        <path d="M54.8438 49.128L53 50L52.6129 48.4475L54.4567 47.5756L54.8438 49.128Z" fill="#302E2A" />
    </g>
    <g opacity="0.8">
        <path d="M54.7624 52.0257L55 50L56.5217 50.4944L56.2841 52.5201L54.7624 52.0257Z" fill="#302E2A" />
    </g>
    <g opacity="0.98">
        <path d="M57.2729 46.9787L57 49L55.4872 48.4791L55.7601 46.4578L57.2729 46.9787Z" fill="#302E2A" />
    </g>
    <g opacity="0.71">
        <path d="M58.7356 47.3996L60 49L58.5744 49.7264L57.31 48.126L58.7356 47.3996Z" fill="#302E2A" />
    </g>
    <g opacity="0.71">
        <path d="M64.247 46.386L63 48L61.9503 46.7925L63.1973 45.1785L64.247 46.386Z" fill="#302E2A" />
    </g>
    <g opacity="0.91">
        <path d="M69.1497 50.6847L68 49L69.4728 48.3748L70.6225 50.0595L69.1497 50.6847Z" fill="#302E2A" />
    </g>
    <g opacity="0.93">
        <path d="M69.4696 49.9848L69 48L70.599 47.9442L71.0686 49.929L69.4696 49.9848Z" fill="#302E2A" />
    </g>
    <path d="M9.03277 53.5385L11 53L11.1116 54.5961L9.14438 55.1346L9.03277 53.5385Z" fill="#302E2A" />
    <g opacity="0.93">
        <path d="M11.3645 50.7814L13 52L11.811 53.0706L10.1754 51.852L11.3645 50.7814Z" fill="#302E2A" />
    </g>
    <g opacity="0.76">
        <path d="M15.3931 49.0528L16 51L14.4088 51.1672L13.8019 49.22L15.3931 49.0528Z" fill="#302E2A" />
    </g>
    <g opacity="0.7">
        <path d="M20.9575 52.4272L19 53L18.8606 51.4061L20.8181 50.8333L20.9575 52.4272Z" fill="#302E2A" />
    </g>
    <g opacity="0.86">
        <path d="M22.2921 52.5781L21 51L22.4127 50.2488L23.7048 51.827L22.2921 52.5781Z" fill="#302E2A" />
    </g>
    <g opacity="0.75">
        <path d="M24.3564 54.2078L26 53L26.6762 54.4501L25.0326 55.6579L24.3564 54.2078Z" fill="#302E2A" />
    </g>
    <g opacity="0.84">
        <path d="M28.6918 55.0162L29 53L30.5035 53.5472L30.1953 55.5634L28.6918 55.0162Z" fill="#302E2A" />
    </g>
    <g opacity="0.9">
        <path d="M28.0237 51.5041L30 51L30.0837 52.5978L28.1074 53.1019L28.0237 51.5041Z" fill="#302E2A" />
    </g>
    <g opacity="0.71">
        <path d="M31.1131 53.7743L33 53L33.3053 54.5706L31.4184 55.3449L31.1131 53.7743Z" fill="#302E2A" />
    </g>
    <g opacity="0.8">
        <path d="M35.3931 49.0528L36 51L34.4088 51.1672L33.8019 49.22L35.3931 49.0528Z" fill="#302E2A" />
    </g>
    <g opacity="0.99">
        <path d="M42.0105 53.3433L40 53L40.5734 51.5063L42.5839 51.8496L42.0105 53.3433Z" fill="#302E2A" />
    </g>
    <g opacity="0.83">
        <path d="M43.4247 54.4595L42 53L43.3419 52.1286L44.7666 53.5881L43.4247 54.4595Z" fill="#302E2A" />
    </g>
    <g opacity="0.93">
        <path d="M43.8503 49.3153L45 51L43.5272 51.6252L42.3775 49.9405L43.8503 49.3153Z" fill="#302E2A" />
    </g>
    <g opacity="0.92">
        <path d="M48.9754 53.0395L49 51L50.565 51.3327L50.5405 53.3721L48.9754 53.0395Z" fill="#302E2A" />
    </g>
    <g opacity="0.79">
        <path d="M50.1562 53.872L52 53L52.3871 54.5525L50.5433 55.4244L50.1562 53.872Z" fill="#302E2A" />
    </g>
    <g opacity="0.87">
        <path d="M54.6918 55.0162L55 53L56.5035 53.5472L56.1953 55.5634L54.6918 55.0162Z" fill="#302E2A" />
    </g>
    <g opacity="0.99">
        <path d="M60.5781 50.7079L59 52L58.2488 50.5873L59.827 49.2952L60.5781 50.7079Z" fill="#302E2A" />
    </g>
    <g opacity="0.97">
        <path d="M61.3026 50.4305L60 52L58.9931 50.7566L60.2957 49.1871L61.3026 50.4305Z" fill="#302E2A" />
    </g>
    <g opacity="0.89">
        <path d="M64.7412 53.9002L64 52L65.5757 51.7222L66.3169 53.6223L64.7412 53.9002Z" fill="#302E2A" />
    </g>
    <g opacity="0.91">
        <path d="M63.9743 51.7624L66 52L65.5056 53.5217L63.4799 53.2841L63.9743 51.7624Z" fill="#302E2A" />
    </g>
    <g opacity="0.78">
        <path d="M70.1313 49.9646L70 52L68.4545 51.5859L68.5858 49.5505L70.1313 49.9646Z" fill="#302E2A" />
    </g>
    <g opacity="0.98">
        <path d="M12.7957 54.0327L11 55L10.5322 53.4699L12.3279 52.5026L12.7957 54.0327Z" fill="#302E2A" />
    </g>
    <g opacity="0.7">
        <path d="M12.7356 53.3996L14 55L12.5744 55.7264L11.31 54.126L12.7356 53.3996Z" fill="#302E2A" />
    </g>
    <g opacity="0.94">
        <path d="M16.7045 52.8799L15 54L14.4006 52.5165L16.1052 51.3964L16.7045 52.8799Z" fill="#302E2A" />
    </g>
    <g opacity="0.97">
        <path d="M17.4272 54.0425L18 56L16.4061 56.1394L15.8333 54.1819L17.4272 54.0425Z" fill="#302E2A" />
    </g>
    <g opacity="0.74">
        <path d="M19.9707 54.2392L21 56L19.4872 56.5209L18.4578 54.7601L19.9707 54.2392Z" fill="#302E2A" />
    </g>
    <g opacity="0.92">
        <path d="M25.1899 54.3435L24 56L22.9088 54.8298L24.0987 53.1733L25.1899 54.3435Z" fill="#302E2A" />
    </g>
    <g opacity="0.87">
        <path d="M26.4305 53.6974L28 55L26.7566 56.0069L25.1871 54.7043L26.4305 53.6974Z" fill="#302E2A" />
    </g>
    <g opacity="0.84">
        <path d="M30.6198 52.0568L30 54L28.6006 53.2243L29.2204 51.2811L30.6198 52.0568Z" fill="#302E2A" />
    </g>
    <g opacity="0.77">
        <path d="M34.1929 54.1269L35 56L33.435 56.3327L32.6279 54.4595L34.1929 54.1269Z" fill="#302E2A" />
    </g>
    <g opacity="0.83">
        <path d="M34.1877 55.9358L36 55L36.441 56.538L34.6288 57.4738L34.1877 55.9358Z" fill="#302E2A" />
    </g>
    <g opacity="0.73">
        <path d="M38.9098 53.2762L40 55L38.5063 55.5734L37.4161 53.8496L38.9098 53.2762Z" fill="#302E2A" />
    </g>
    <g opacity="0.93">
        <path d="M43.9178 53.962L44 56L42.4197 55.7497L42.3375 53.7118L43.9178 53.962Z" fill="#302E2A" />
    </g>
    <g opacity="0.74">
        <path d="M44.0797 53.3128L46 54L45.1759 55.3715L43.2556 54.6843L44.0797 53.3128Z" fill="#302E2A" />
    </g>
    <g opacity="0.71">
        <path d="M52.0396 55.989L50 56L50.3053 54.4294L52.3449 54.4184L52.0396 55.989Z" fill="#302E2A" />
    </g>
    <g opacity="0.81">
        <path d="M50.5656 57.45L52 56L52.8947 57.3265L51.4603 58.7765L50.5656 57.45Z" fill="#302E2A" />
    </g>
    <g opacity="0.86">
        <path d="M57.4089 53.5252L56 55L55.0823 53.6894L56.4912 52.2145L57.4089 53.5252Z" fill="#302E2A" />
    </g>
    <g opacity="0.89">
        <path d="M59.0246 52.9605L59 55L57.435 54.6673L57.4595 52.6279L59.0246 52.9605Z" fill="#302E2A" />
    </g>
    <g opacity="0.94">
        <path d="M59.3592 54.0637L60 56L58.4119 56.195L57.7712 54.2586L59.3592 54.0637Z" fill="#302E2A" />
    </g>
    <g opacity="0.9">
        <path d="M63.2574 55.0599L65 54L65.5472 55.5035L63.8047 56.5634L63.2574 55.0599Z" fill="#302E2A" />
    </g>
    <g opacity="0.81">
        <path d="M67.3829 54.5008L66 56L65.0595 54.7056L66.4425 53.2064L67.3829 54.5008Z" fill="#302E2A" />
    </g>
    <g opacity="0.96">
        <path d="M68.7758 52.9727L69 55L67.4061 54.8606L67.1819 52.8333L68.7758 52.9727Z" fill="#302E2A" />
    </g>
    <g opacity="0.85">
        <path d="M14.3433 56.9895L14 59L12.5063 58.4266L12.8496 56.4161L14.3433 56.9895Z" fill="#302E2A" />
    </g>
    <g opacity="0.79">
        <path d="M14.9743 56.7624L17 57L16.5056 58.5217L14.4799 58.2841L14.9743 56.7624Z" fill="#302E2A" />
    </g>
    <g opacity="0.79">
        <path d="M18.8686 58.6971L20 57L21.1314 58.1314L20 59.8284L18.8686 58.6971Z" fill="#302E2A" />
    </g>
    <path d="M24.3729 59.5083L23 58L24.3715 57.1759L25.7444 58.6843L24.3729 59.5083Z" fill="#302E2A" />
    <g opacity="0.98">
        <path d="M22.3356 60.1789L24 59L24.6508 60.4617L22.9864 61.6406L22.3356 60.1789Z" fill="#302E2A" />
    </g>
    <g opacity="0.74">
        <path d="M29.872 60.8438L29 59L30.5525 58.6129L31.4244 60.4567L29.872 60.8438Z" fill="#302E2A" />
    </g>
    <g opacity="0.75">
        <path d="M29.3435 57.8101L31 59L29.8298 60.0912L28.1733 58.9013L29.3435 57.8101Z" fill="#302E2A" />
    </g>
    <g opacity="0.92">
        <path d="M33.0797 56.3128L35 57L34.1759 58.3715L32.2556 57.6843L33.0797 56.3128Z" fill="#302E2A" />
    </g>
    <g opacity="0.76">
        <path d="M36.2595 61.023L36 59L37.5961 59.1116L37.8556 61.1346L36.2595 61.023Z" fill="#302E2A" />
    </g>
    <g opacity="0.95">
        <path d="M37.2762 59.0902L39 58L39.5734 59.4937L37.8496 60.5839L37.2762 59.0902Z" fill="#302E2A" />
    </g>
    <g opacity="0.92">
        <path d="M41.3931 57.0528L42 59L40.4088 59.1672L39.8019 57.22L41.3931 57.0528Z" fill="#302E2A" />
    </g>
    <g opacity="0.83">
        <path d="M45.2948 61.0182L45 59L46.5978 59.0837L46.8926 61.1019L45.2948 61.0182Z" fill="#302E2A" />
    </g>
    <g opacity="0.88">
        <path d="M49.4959 56.0237L50 58L48.4022 58.0837L47.8981 56.1074L49.4959 56.0237Z" fill="#302E2A" />
    </g>
    <g opacity="0.71">
        <path d="M49.4447 60.3195L51 59L51.7757 60.3994L50.2204 61.7189L49.4447 60.3195Z" fill="#302E2A" />
    </g>
    <g opacity="0.92">
        <path d="M55.247 56.386L54 58L52.9503 56.7925L54.1973 55.1785L55.247 56.386Z" fill="#302E2A" />
    </g>
    <g opacity="0.7">
        <path d="M59.1313 55.9646L59 58L57.4545 57.5859L57.5858 55.5505L59.1313 55.9646Z" fill="#302E2A" />
    </g>
    <g opacity="0.99">
        <path d="M58.4535 55.6702L60 57L58.7392 57.9851L57.1927 56.6553L58.4535 55.6702Z" fill="#302E2A" />
    </g>
    <g opacity="0.79">
        <path d="M65.9973 59.4133L64 59L64.6252 57.5272L66.6225 57.9405L65.9973 59.4133Z" fill="#302E2A" />
    </g>
    <g opacity="0.7">
        <path d="M67.7206 57.0919L67 59L65.6431 58.1521L66.3637 56.2441L67.7206 57.0919Z" fill="#302E2A" />
    </g>
    <g opacity="0.92">
        <path d="M13.0213 60.2729L11 60L11.5209 58.4872L13.5422 58.7601L13.0213 60.2729Z" fill="#302E2A" />
    </g>
    <g opacity="0.94">
        <path d="M11.386 58.753L13 60L11.7925 61.0497L10.1785 59.8027L11.386 58.753Z" fill="#302E2A" />
    </g>
    <g opacity="0.96">
        <path d="M17.5231 61.3565L16 60L17.2778 59.0371L18.8009 60.3936L17.5231 61.3565Z" fill="#302E2A" />
    </g>
    <g opacity="0.82">
        <path d="M21.9672 61.4615L20 62L19.8884 60.4039L21.8556 59.8654L21.9672 61.4615Z" fill="#302E2A" />
    </g>
    <path d="M20.1469 60.148L22 61L21.0595 62.2944L19.2064 61.4425L20.1469 60.148Z" fill="#302E2A" />
    <g opacity="0.9">
        <path d="M27.4344 59.55L26 61L25.1053 59.6735L26.5397 58.2235L27.4344 59.55Z" fill="#302E2A" />
    </g>
    <g opacity="0.73">
        <path d="M27.3255 58.0751L28 60L26.4156 60.2227L25.7411 58.2978L27.3255 58.0751Z" fill="#302E2A" />
    </g>
    <g opacity="0.76">
        <path d="M32.0715 60.2645L31 62L29.8298 60.9088L30.9013 59.1733L32.0715 60.2645Z" fill="#302E2A" />
    </g>
    <g opacity="0.76">
        <path d="M34.3783 58.9958L34 61L32.5165 60.4006L32.8948 58.3964L34.3783 58.9958Z" fill="#302E2A" />
    </g>
    <g opacity="0.97">
        <path d="M37.9249 59.3255L36 60L35.7773 58.4156L37.7022 57.7411L37.9249 59.3255Z" fill="#302E2A" />
    </g>
    <g opacity="0.79">
        <path d="M40.5652 60.0073L41 62L39.4002 62.0279L38.9654 60.0352L40.5652 60.0073Z" fill="#302E2A" />
    </g>
    <g opacity="0.92">
        <path d="M41.5753 60.5405L43 62L41.6581 62.8714L40.2334 61.4119L41.5753 60.5405Z" fill="#302E2A" />
    </g>
    <g opacity="0.77">
        <path d="M44.2921 58.0872L45 60L43.4197 60.2503L42.7118 58.3375L44.2921 58.0872Z" fill="#302E2A" />
    </g>
    <g opacity="0.94">
        <path d="M49.4089 59.5252L48 61L47.0823 59.6894L48.4912 58.2145L49.4089 59.5252Z" fill="#302E2A" />
    </g>
    <g opacity="0.96">
        <path d="M52.5083 59.6271L51 61L50.1759 59.6285L51.6843 58.2556L52.5083 59.6271Z" fill="#302E2A" />
    </g>
    <g opacity="0.89">
        <path d="M56.0293 63.7608L55 62L56.5128 61.4791L57.5422 63.2399L56.0293 63.7608Z" fill="#302E2A" />
    </g>
    <g opacity="0.99">
        <path d="M60.0102 58.2282L59 60L57.7925 58.9503L58.8027 57.1785L60.0102 58.2282Z" fill="#302E2A" />
    </g>
    <g opacity="0.76">
        <path d="M63.7608 60.9707L62 62L61.4791 60.4872L63.2399 59.4578L63.7608 60.9707Z" fill="#302E2A" />
    </g>
    <g opacity="0.73">
        <path d="M65.5553 58.6805L64 60L63.2243 58.6006L64.7796 57.2811L65.5553 58.6805Z" fill="#302E2A" />
    </g>
    <g opacity="0.92">
        <path d="M15.0105 63.3433L13 63L13.5734 61.5063L15.5839 61.8496L15.0105 63.3433Z" fill="#302E2A" />
    </g>
    <g opacity="0.96">
        <path d="M14.9613 63.9398L17 64L16.6401 65.559L14.6014 65.4988L14.9613 63.9398Z" fill="#302E2A" />
    </g>
    <g opacity="0.88">
        <path d="M22.0182 64.7052L20 65L20.0837 63.4022L22.1019 63.1074L22.0182 64.7052Z" fill="#302E2A" />
    </g>
    <g opacity="0.91">
        <path d="M19.3435 63.8101L21 65L19.8298 66.0912L18.1733 64.9013L19.3435 63.8101Z" fill="#302E2A" />
    </g>
    <g opacity="0.8">
        <path d="M25.7412 66.9002L25 65L26.5757 64.7222L27.3169 66.6223L25.7412 66.9002Z" fill="#302E2A" />
    </g>
    <g opacity="0.73">
        <path d="M30.0374 64.0957L28 64L28.3871 62.4475L30.4244 62.5433L30.0374 64.0957Z" fill="#302E2A" />
    </g>
    <g opacity="0.95">
        <path d="M30.3931 63.0528L31 65L29.4088 65.1672L28.8019 63.22L30.3931 63.0528Z" fill="#302E2A" />
    </g>
    <g opacity="0.74">
        <path d="M35.0396 63.989L33 64L33.3053 62.4294L35.3449 62.4184L35.0396 63.989Z" fill="#302E2A" />
    </g>
    <g opacity="0.78">
        <path d="M38.8123 63.0642L37 64L36.559 62.462L38.3712 61.5262L38.8123 63.0642Z" fill="#302E2A" />
    </g>
    <g opacity="0.99">
        <path d="M39.852 62.1469L39 64L37.7056 63.0595L38.5575 61.2064L39.852 62.1469Z" fill="#302E2A" />
    </g>
    <g opacity="0.92">
        <path d="M44.8071 65.8731L44 64L45.565 63.6673L46.3721 65.5405L44.8071 65.8731Z" fill="#302E2A" />
    </g>
    <g opacity="0.93">
        <path d="M44.9691 63.1888L47 63L46.8328 64.5912L44.8019 64.78L44.9691 63.1888Z" fill="#302E2A" />
    </g>
    <g opacity="0.9">
        <path d="M49.2257 61.1131L50 63L48.4294 63.3053L47.6551 61.4184L49.2257 61.1131Z" fill="#302E2A" />
    </g>
    <g opacity="0.78">
        <path d="M55.0067 63.635L53 64L53.0279 62.4002L55.0346 62.0352L55.0067 63.635Z" fill="#302E2A" />
    </g>
    <g opacity="0.81">
        <path d="M57.1314 62.3029L56 64L54.8686 62.8686L56 61.1716L57.1314 62.3029Z" fill="#302E2A" />
    </g>
    <g opacity="0.71">
        <path d="M57.8211 63.3356L59 65L57.5383 65.6508L56.3594 63.9864L57.8211 63.3356Z" fill="#302E2A" />
    </g>
    <g opacity="0.79">
        <path d="M59.753 64.614L61 63L62.0497 64.2075L60.8027 65.8215L59.753 64.614Z" fill="#302E2A" />
    </g>
    <g opacity="0.81">
        <path d="M17.2835 64.8984L19 66L17.8885 67.1509L16.172 66.0494L17.2835 64.8984Z" fill="#302E2A" />
    </g>
    <g opacity="0.84">
        <path d="M22.0822 68.038L22 66L23.5803 66.2503L23.6625 68.2882L22.0822 68.038Z" fill="#302E2A" />
    </g>
    <g opacity="0.97">
        <path d="M23.977 66.2595L26 66L25.8884 67.5961L23.8654 67.8556L23.977 66.2595Z" fill="#302E2A" />
    </g>
    <g opacity="0.88">
        <path d="M29.0105 67.3433L27 67L27.5734 65.5063L29.5839 65.8496L29.0105 67.3433Z" fill="#302E2A" />
    </g>
    <g opacity="0.95">
        <path d="M31.5172 64.0271L31 66L29.5619 65.2986L30.0792 63.3257L31.5172 64.0271Z" fill="#302E2A" />
    </g>
    <g opacity="0.91">
        <path d="M31.9838 67.6918L34 68L33.4528 69.5035L31.4366 69.1953L31.9838 67.6918Z" fill="#302E2A" />
    </g>
    <g opacity="0.78">
        <path d="M36.1777 65.0839L38 66L37.0149 67.2608L35.1927 66.3447L36.1777 65.0839Z" fill="#302E2A" />
    </g>
    <g opacity="0.71">
        <path d="M39.6435 68.5231L41 67L41.9629 68.2778L40.6064 69.8009L39.6435 68.5231Z" fill="#302E2A" />
    </g>
    <g opacity="0.83">
        <path d="M41.9605 65.9754L44 66L43.6673 67.565L41.6279 67.5405L41.9605 65.9754Z" fill="#302E2A" />
    </g>
    <g opacity="0.9">
        <path d="M47.7165 67.1016L46 66L47.1115 64.8491L48.828 65.9506L47.7165 67.1016Z" fill="#302E2A" />
    </g>
    <g opacity="0.92">
        <path d="M49.6536 66.0679L49 68L47.6144 67.2L48.2679 65.2679L49.6536 66.0679Z" fill="#302E2A" />
    </g>
    <g opacity="0.76">
        <path d="M50.0839 67.8223L51 66L52.2608 66.9851L51.3447 68.8073L50.0839 67.8223Z" fill="#302E2A" />
    </g>
    <g opacity="0.92">
        <path d="M54.3996 68.2644L56 67L56.7264 68.4256L55.126 69.69L54.3996 68.2644Z" fill="#302E2A" />
    </g>
    <g opacity="0.92">
        <path d="M58.2022 63.9704L58 66L56.4699 65.5322L56.6721 63.5026L58.2022 63.9704Z" fill="#302E2A" />
    </g>
    <g opacity="0.85">
        <path d="M30.6436 68.7922L29 70L28.3238 68.5499L29.9674 67.3421L30.6436 68.7922Z" fill="#302E2A" />
    </g>
    <g opacity="0.7">
        <path d="M33.592 71.275L32 70L33.2257 68.9715L34.8177 70.2465L33.592 71.275Z" fill="#302E2A" />
    </g>
    <g opacity="0.88">
        <path d="M34.6436 67.7922L33 69L32.3238 67.5499L33.9674 66.3421L34.6436 67.7922Z" fill="#302E2A" />
    </g>
    <g opacity="0.7">
        <path d="M37.5385 72.9672L37 71L38.5961 70.8884L39.1346 72.8556L37.5385 72.9672Z" fill="#302E2A" />
    </g>
    <g opacity="0.9">
        <path d="M39.5173 70.9817L40 69L41.4501 69.6762L40.9674 71.6579L39.5173 70.9817Z" fill="#302E2A" />
    </g>
    <g opacity="0.71">
        <path d="M43.904 71.8283L43 70L44.5455 69.5859L45.4495 71.4142L43.904 71.8283Z" fill="#302E2A" />
    </g>
    <g opacity="0.97">
        <path d="M45.7412 70.9002L45 69L46.5757 68.7222L47.3169 70.6223L45.7412 70.9002Z" fill="#302E2A" />
    </g>
    <g opacity="0.78">
        <path d="M48.33 72.0127L48 70L49.599 70.0558L49.929 72.0686L48.33 72.0127Z" fill="#302E2A" />
    </g>
    <g opacity="0.97">
        <path d="M49.1048 68.2462L51 69L50.1286 70.3419L48.2334 69.5881L49.1048 68.2462Z" fill="#302E2A" />
    </g>
    <g opacity="0.89">
        <path d="M54.1929 69.1269L55 71L53.435 71.3327L52.6279 69.4595L54.1929 69.1269Z" fill="#302E2A" />
    </g>
    <g opacity="0.85">
        <path d="M28.7405 69.977L29 72L27.4039 71.8884L27.1444 69.8654L28.7405 69.977Z" fill="#302E2A" />
    </g>
    <g opacity="0.98">
        <path d="M35.7539 73.041L34 72L35.0706 70.811L36.8246 71.852L35.7539 73.041Z" fill="#302E2A" />
    </g>
    <g opacity="0.93">
        <path d="M39.5083 71.6271L38 73L37.1759 71.6285L38.6843 70.2556L39.5083 71.6271Z" fill="#302E2A" />
    </g>
    <g opacity="0.72">
        <path d="M40.6771 73.1608L39 72L40.1509 70.8885L41.828 72.0494L40.6771 73.1608Z" fill="#302E2A" />
    </g>
    <g opacity="0.89">
        <path d="M41.0522 73.806L42 72L43.2434 73.0069L42.2957 74.8129L41.0522 73.806Z" fill="#302E2A" />
    </g>
    <g opacity="0.97">
        <path d="M46.3433 70.9895L46 73L44.5063 72.4266L44.8496 70.4161L46.3433 70.9895Z" fill="#302E2A" />
    </g>
</svg>